<?xml version="1.0" standalone="no"?>
<!DOCTYPE svg PUBLIC "-//W3C//DTD SVG 20010904//EN"
 "http://www.w3.org/TR/2001/REC-SVG-20010904/DTD/svg10.dtd">
<svg version="1.0" xmlns="http://www.w3.org/2000/svg"
 width="700.000000pt" height="700.000000pt" viewBox="0 0 700.000000 700.000000"
 preserveAspectRatio="xMidYMid meet">
<metadata>
Created by potrace 1.14, written by Peter Selinger 2001-2017
</metadata>
<g transform="translate(0.000000,700.000000) scale(0.100000,-0.100000)"
fill="#000000" stroke="none">
<path d="M3005 6365 l-390 -163 -117 -247 c-64 -135 -118 -249 -121 -251 -3
-3 -40 11 -84 32 -165 77 -359 140 -558 178 -216 42 -523 65 -698 51 l-97 -7
0 -331 c0 -349 12 -638 30 -753 34 -218 108 -472 192 -662 45 -101 49 -115 35
-130 -155 -179 -407 -477 -407 -482 0 -15 286 -303 384 -385 79 -68 107 -97
112 -120 3 -16 29 -145 57 -286 l52 -257 1005 -1026 c553 -564 1007 -1026
1010 -1026 3 0 352 353 774 785 423 432 772 785 777 785 4 0 142 -157 305
-350 333 -393 327 -387 447 -378 117 10 244 94 292 193 28 59 32 143 8 189
-10 20 -135 178 -277 351 l-258 315 -33 -20 -33 -20 -31 39 -32 40 40 60 c49
77 85 166 105 264 17 82 20 225 7 295 l-8 42 86 67 c83 64 451 425 451 442 0
4 -89 111 -197 238 -109 126 -204 237 -212 246 -11 14 -6 32 37 129 84 190
158 444 192 662 18 115 30 403 30 752 l0 331 -67 6 c-225 22 -618 -16 -885
-84 -121 -30 -266 -82 -377 -134 -55 -27 -104 -45 -107 -42 -3 3 -58 117 -123
253 l-116 246 -390 164 c-214 90 -397 163 -405 163 -8 0 -190 -74 -405 -164z
m-1620 -555 c322 -28 596 -95 823 -201 56 -26 102 -50 102 -52 0 -13 -161
-332 -168 -332 -4 0 -47 20 -97 44 -107 51 -288 113 -400 136 -87 18 -215 31
-215 23 0 -3 5 -52 10 -109 15 -145 36 -258 72 -368 36 -112 48 -93 -119 -182
-62 -33 -115 -64 -118 -68 -7 -12 107 -56 238 -92 61 -16 113 -31 114 -33 2
-2 -264 -374 -282 -394 -10 -11 -119 267 -160 409 -74 254 -94 463 -95 972 l0
257 88 0 c48 0 141 -5 207 -10z m4345 -257 c-1 -498 -21 -706 -94 -960 -41
-140 -150 -423 -160 -412 -15 17 -285 393 -283 395 1 1 59 18 130 38 128 36
227 73 227 85 0 3 -54 35 -120 70 -171 91 -157 71 -122 182 36 110 57 223 72
368 5 57 10 105 10 107 0 9 -83 3 -161 -11 -166 -31 -336 -88 -483 -161 -38
-19 -70 -33 -71 -32 -5 6 -165 328 -165 333 0 9 135 72 233 109 248 93 579
151 880 155 l107 1 0 -267z m-1515 -1254 c122 -17 128 -22 54 -49 -98 -35
-226 -102 -335 -175 -77 -51 -110 -68 -147 -72 l-48 -6 20 51 c44 111 102 178
189 219 85 40 153 48 267 32z m-1344 -32 c85 -41 155 -127 200 -244 l9 -25
-51 7 c-39 5 -67 18 -112 51 -82 60 -219 137 -324 180 -48 20 -90 38 -91 39
-12 11 101 24 198 22 103 -2 121 -5 171 -30z m-536 -169 c-164 -180 -273 -393
-310 -606 -29 -165 -15 -415 30 -543 9 -23 14 -44 12 -46 -7 -6 -310 118 -417
172 -97 49 -282 164 -294 184 -8 13 42 157 84 246 154 320 408 508 850 630 47
13 89 24 93 24 5 1 -17 -27 -48 -61z m2270 16 c447 -133 706 -368 836 -756 30
-90 30 -91 11 -110 -19 -19 -19 -19 -42 24 -114 221 -337 377 -585 410 l-82
11 -43 86 c-55 112 -113 199 -200 299 -69 81 -70 81 -37 75 17 -3 82 -21 142
-39z m-1015 -284 c164 -54 342 -193 468 -364 l50 -70 -30 -44 c-42 -62 -93
-175 -114 -257 -25 -100 -23 -274 5 -379 12 -44 19 -81 17 -83 -6 -6 -270 -84
-376 -111 -204 -51 -324 -34 -742 101 l-193 63 -33 54 c-45 76 -62 140 -62
235 0 207 111 435 306 629 125 124 271 211 405 241 84 19 214 13 299 -15z
m1294 -297 c221 -55 403 -242 462 -473 24 -96 16 -261 -19 -358 -95 -269 -358
-445 -643 -429 -163 9 -298 71 -420 193 -247 246 -245 653 5 899 165 163 391
224 615 168z m436 -1306 c0 -4 -12 -12 -27 -18 -16 -5 -37 -21 -49 -35 l-21
-26 -46 49 -47 48 23 15 c12 8 35 27 52 42 l30 27 42 -47 c23 -26 42 -50 43
-55z m359 -317 c222 -270 226 -279 175 -340 -38 -44 -116 -82 -164 -78 -36 3
-47 14 -258 262 l-220 259 116 87 c108 81 118 86 134 71 9 -9 107 -126 217
-261z"/>
<path d="M3254 3461 c-89 -15 -124 -47 -124 -116 1 -77 56 -159 151 -222 l39
-26 0 -78 0 -79 -54 0 c-81 0 -105 -34 -71 -100 l16 -30 198 0 c154 0 201 3
210 13 18 22 24 73 12 96 -10 18 -21 21 -71 21 l-60 0 0 78 0 77 65 48 c76 56
116 118 123 188 6 60 -14 94 -66 116 -43 18 -286 27 -368 14z"/>
<path d="M4579 3391 c-175 -56 -311 -204 -348 -379 -57 -276 136 -550 419
-593 295 -45 569 192 570 491 0 229 -150 424 -375 486 -70 19 -198 17 -266 -5z
m101 -139 c35 -28 21 -66 -37 -100 -68 -40 -114 -84 -148 -141 -24 -41 -34
-50 -50 -46 -11 2 -30 5 -42 5 -28 0 -30 26 -6 96 29 87 164 200 244 203 9 1
27 -7 39 -17z m252 -13 c77 -49 166 -166 143 -188 -12 -10 -257 -92 -262 -87
-2 1 4 23 12 47 14 38 45 209 45 247 0 18 8 15 62 -19z m-460 -326 c42 -37 -3
-123 -56 -107 -53 16 -70 59 -40 102 18 27 69 30 96 5z"/>
</g>
</svg>
