<?xml version="1.0" encoding="utf-8"?>
<!-- Generator: Adobe Illustrator 19.2.1, SVG Export Plug-In . SVG Version: 6.00 Build 0)  -->
<svg version="1.1" id="layer" xmlns="http://www.w3.org/2000/svg" xmlns:xlink="http://www.w3.org/1999/xlink" x="0px" y="0px"
	 viewBox="0 0 652 652" style="enable-background:new 0 0 652 652;" xml:space="preserve">
<style type="text/css">
	.st0{fill:#696969;}
	.st1{fill:#00A9D4;}
	.st2{fill:#FDBD3E;}
	.st3{fill:#FFFFFF;}
</style>
<path class="st0" d="M602.4,298.4h-10l-23.7,54.3h11.8l9.8-22.9h0l6.9-16.1v0l0.2-0.4l6.4,15.3l-4.4,10h8.6l3,7.2l2.9,6.8h12.3
	L602.4,298.4z M464.7,298.4l-23.7,54.3h11.8l9.8-22.9h0l6.9-16.2l0,0.1l0.1-0.3l6.4,15.3l-4.3,10h8.5l3,7.2l2.9,6.8h12.3l-23.7-54.3
	H464.7z M545.3,331.9l-25.6-33.2h-10.2v53.9h11.5v-34.2l26.4,34.2h9.4v-53.9h-11.5V331.9z M413.4,336.1l-14.7-37.4H386l0.7,1.7
	l21.7,52.6h9.6l22.4-54.3H428L413.4,336.1z"/>
<g>
	<path class="st0" d="M339.2,325.9v-22.4h17.3c4.9,0,8.6,1.1,11.1,3c2.5,2,3.7,4.5,3.7,8.1v0.1c0,1.6-0.3,3.1-1,4.5
		c-0.7,1.3-1.6,2.5-2.9,3.5s-2.9,1.8-4.8,2.4c-1.9,0.6-4.1,0.9-6.7,0.9H339.2z M361.3,330.1c1.6-0.3,3.2-0.7,4.6-1.2
		c2.1-0.8,4-1.8,5.5-3.2c1.6-1.3,2.8-3,3.7-4.8c0.9-1.9,1.3-4,1.3-6.3v-0.1c0-2.1-0.4-4-1.1-5.8c-0.7-1.8-1.7-3.3-3-4.6
		c-1.7-1.7-3.9-3-6.5-4c-2.6-0.9-5.7-1.3-9-1.3h-22.5v53.9h5v-22h16.4l16.8,22h6.3L361.3,330.1z M293,298.4l-25.6,54.3h5.3
		l22.1-47.2l12.6,26.4l-3.1,6.7h6.3l6.7,14.1h5.1l-25.6-54.3H293z M253.2,340.9c-2.2,2.3-4.7,4.1-7.6,5.7c-2.7,1.5-6,2.2-9.8,2.2
		c-3.1,0-5.9-0.6-8.5-1.8c-2.7-1.2-4.9-2.8-6.9-4.9c-2-2.1-3.5-4.5-4.6-7.3c-1.1-2.8-1.6-5.8-1.6-8.9v-0.1c0-3.2,0.5-6.2,1.6-8.9
		c1.1-2.8,2.6-5.2,4.5-7.3c1.9-2.1,4.2-3.7,6.8-4.9c2.6-1.2,5.4-1.8,8.6-1.8c2.1,0,3.9,0.2,5.6,0.6c1.7,0.4,3.2,0.9,4.6,1.6
		c1.4,0.7,2.7,1.5,3.8,2.3c1.2,0.9,2.3,1.9,3.3,2.9l0.9,0.9l3.5-3.6l-0.9-0.9c-1.3-1.2-2.6-2.3-4-3.3c-1.4-1-2.9-1.9-4.5-2.7
		c-1.7-0.8-3.5-1.4-5.4-1.8c-2-0.4-4.2-0.7-6.7-0.7c-3.8,0-7.4,0.7-10.7,2.2c-3.3,1.5-6.1,3.5-8.4,6.1c-2.4,2.5-4.2,5.5-5.5,8.8
		c-1.3,3.4-2,6.9-2,10.7v0.1c0,3.8,0.7,7.4,2,10.8c1.3,3.3,3.1,6.3,5.5,8.8c2.4,2.5,5.2,4.5,8.4,5.9c3.3,1.5,6.8,2.2,10.6,2.2
		c2.4,0,4.5-0.2,6.6-0.7c2-0.5,3.9-1.1,5.6-1.9c1.7-0.8,3.4-1.8,4.8-2.9c1.4-1.1,2.8-2.3,4-3.6l0.9-0.9l-3.6-3.4L253.2,340.9z"/>
	<path class="st1" d="M178.9,325.7c0,42.2-34.2,76.3-76.4,76.3c-42.2,0-76.3-34.2-76.3-76.3c0-42.2,34.2-76.4,76.3-76.4
		C144.7,249.4,178.9,283.6,178.9,325.7"/>
	<path class="st2" d="M102.9,296.1c-5,0-9.5-0.3-13.1-0.9c-3.6-0.6-6.2-1.2-7.7-2.6c-0.4-0.4-0.9-1-0.9-1.9c0-0.8,0.4-1.4,0.9-1.8
		c0.5-0.4,1-0.7,1.6-1c1.2-0.5,2.8-1,4.7-1.3c3.8-0.7,8.9-1.2,14.6-1.2c4.9,0,9.5,0.3,13.1,0.9c3.6,0.6,6.2,1.2,7.7,2.6
		c0.4,0.4,0.9,1,0.9,1.8c0,0.8-0.5,1.5-0.9,1.9c-0.5,0.4-1,0.7-1.6,1c-1.2,0.5-2.8,1-4.7,1.3C113.6,295.7,108.5,296.1,102.9,296.1
		 M102.9,288.4c-4.8,0-9.3,0.3-12.7,0.9c-2.7,0.4-4.8,1-5.7,1.5l0.3,0.2c0.8,0.4,2.2,0.8,4,1.1c3.5,0.7,8.5,1.1,14,1.1
		c4.8,0,9.3-0.3,12.7-0.9c2.7-0.4,4.8-1.1,5.7-1.5l-0.3-0.2c-0.8-0.4-2.2-0.8-4-1.1C113.3,288.8,108.4,288.4,102.9,288.4"/>
	<path class="st3" d="M136.8,336.2c0,0-0.2,1.1-2,1.5c-1.8,0.4-6.9,1.3-10.7,1.6c0,0,0.4-5.4,3.5-7c0,0,4-2.5,5.3-2.6
		c1.2,0,2.7,0.1,3.3,1.7C136.3,331.5,137.2,333.8,136.8,336.2 M120.8,339.6c-5.5,0.5-13.4,0.5-18.3,0.5c-4.8,0-12.7,0-18.2-0.5
		c0,0-1.6-3.3,0.8-3.4c0.3,0,7.4-0.3,17.4-0.3c10,0,17.1,0.3,17.4,0.3C122.3,336.3,120.8,339.6,120.8,339.6 M70.2,337.8
		c-1.8-0.4-2-1.5-2-1.5c-0.3-2.4,0.6-4.7,0.6-4.7c0.6-1.6,2.1-1.8,3.3-1.7c1.3,0,5.3,2.6,5.3,2.6c3.1,1.6,3.5,7,3.5,7
		C77.2,339.1,72,338.2,70.2,337.8 M78.9,318.2c0,0,3.6-8,6.4-11.4c0,0,5.3-0.2,12.4-0.3l-0.2,0.6v1.2c0,0.5,0.4,0.8,0.8,0.8h4.1h0.1
		h4.1c0.5,0,0.9-0.4,0.9-0.8V307l-0.2-0.6c7.1,0.1,12.4,0.3,12.4,0.3c2.9,3.4,6.4,11.4,6.4,11.4c0.5,1.3-0.6,1.3-0.6,1.3h-23h-0.1
		h-23C79.5,319.5,78.4,319.5,78.9,318.2 M136,327.3c-1.5-1.7-4-6-4.3-6.6c0.2,0,0.3-0.1,0.3-0.1s8.2-0.4,6.7-3.2
		c0,0-1.6-3.4-7.6-3.4c-0.2,0-0.5,0-0.8,0l0,0c-0.3,0-0.7,0.1-0.8,2.2c-5-9.2-8.4-11.1-8.4-11.1c-0.7-0.4-1.1-0.6-2.8-1
		c-1.7-0.3-14.7-0.4-15.8-0.4h0h0c-1.1,0-14.1,0.1-15.8,0.4c-1.7,0.3-2.2,0.6-2.8,1c0,0-3.5,1.9-8.4,11.1c-0.2-2.1-0.5-2.2-0.8-2.2
		l0,0c-0.3,0-0.5,0-0.8,0c-6,0-7.6,3.4-7.6,3.4c-1.5,2.8,6.7,3.2,6.7,3.2s0.2,0,0.4,0.1c-0.3,0.6-2.8,4.9-4.3,6.6
		c-0.3,0.3-1.8,2.1-2.3,3.4c-0.1,0.3-0.7,1.7-0.6,3.9c0.1,2.1,0.3,11.6,0.3,11.6V358c0,0.7,0.4,1.2,1,1.2h9.4c0.6,0,1-0.5,1-1.2
		v-1.5c0,0,23.4,0,24.8,0c1.4,0,24.8,0,24.8,0v1.5c0,0.7,0.5,1.2,1,1.2h9.4c0.6,0,1-0.5,1-1.2v-11.9c0,0,0.2-9.4,0.3-11.6
		c0.1-2.1-0.5-3.6-0.6-3.9C137.8,329.3,136.3,327.6,136,327.3"/>
</g>
</svg>
