<svg width="490" height="400" viewBox="0 0 490 400" style="background-color: transparent;" xmlns="http://www.w3.org/2000/svg" xmlns:xlink="http://www.w3.org/1999/xlink"><circle cx="20" cy="20" r="6" fill="#9CA3AF" opacity="0.6"/><circle cx="38" cy="20" r="6" fill="#9CA3AF" opacity="0.6"/><circle cx="56" cy="20" r="6" fill="#9CA3AF" opacity="0.6"/><circle cx="74" cy="20" r="6" fill="#3B82F6" opacity="1"/><circle cx="92" cy="20" r="6" fill="#9CA3AF" opacity="0.6"/><circle cx="110" cy="20" r="6" fill="#9CA3AF" opacity="0.6"/><circle cx="128" cy="20" r="6" fill="#9CA3AF" opacity="0.6"/><circle cx="146" cy="20" r="6" fill="#9CA3AF" opacity="0.6"/><circle cx="164" cy="20" r="6" fill="#9CA3AF" opacity="0.6"/><circle cx="182" cy="20" r="6" fill="#9CA3AF" opacity="0.6"/><circle cx="200" cy="20" r="6" fill="#9CA3AF" opacity="0.6"/><circle cx="218" cy="20" r="6" fill="#9CA3AF" opacity="0.6"/><circle cx="236" cy="20" r="6" fill="#9CA3AF" opacity="0.6"/><circle cx="254" cy="20" r="6" fill="#9CA3AF" opacity="0.6"/><circle cx="272" cy="20" r="6" fill="#9CA3AF" opacity="0.6"/><circle cx="290" cy="20" r="6" fill="#9CA3AF" opacity="0.6"/><circle cx="308" cy="20" r="6" fill="#9CA3AF" opacity="0.6"/><circle cx="326" cy="20" r="6" fill="#9CA3AF" opacity="0.6"/><circle cx="344" cy="20" r="6" fill="#9CA3AF" opacity="0.6"/><circle cx="362" cy="20" r="6" fill="#9CA3AF" opacity="0.6"/><circle cx="380" cy="20" r="6" fill="#9CA3AF" opacity="0.6"/><circle cx="398" cy="20" r="6" fill="#9CA3AF" opacity="0.6"/><circle cx="416" cy="20" r="6" fill="#9CA3AF" opacity="0.6"/><circle cx="434" cy="20" r="6" fill="#9CA3AF" opacity="0.6"/><circle cx="452" cy="20" r="6" fill="#9CA3AF" opacity="0.6"/><circle cx="20" cy="38" r="6" fill="#9CA3AF" opacity="0.6"/><circle cx="38" cy="38" r="6" fill="#9CA3AF" opacity="0.6"/><circle cx="56" cy="38" r="6" fill="#9CA3AF" opacity="0.6"/><circle cx="74" cy="38" r="6" fill="#9CA3AF" opacity="0.6"/><circle cx="92" cy="38" r="6" fill="#9CA3AF" opacity="0.6"/><circle cx="110" cy="38" r="6" fill="#9CA3AF" opacity="0.6"/><circle cx="128" cy="38" r="6" fill="#9CA3AF" opacity="0.6"/><circle cx="146" cy="38" r="6" fill="#9CA3AF" opacity="0.6"/><circle cx="164" cy="38" r="6" fill="#9CA3AF" opacity="0.6"/><circle cx="182" cy="38" r="6" fill="#9CA3AF" opacity="0.6"/><circle cx="200" cy="38" r="6" fill="#9CA3AF" opacity="0.6"/><circle cx="218" cy="38" r="6" fill="#9CA3AF" opacity="0.6"/><circle cx="236" cy="38" r="6" fill="#9CA3AF" opacity="0.6"/><circle cx="254" cy="38" r="6" fill="#3B82F6" opacity="1"/><circle cx="272" cy="38" r="6" fill="#9CA3AF" opacity="0.6"/><circle cx="290" cy="38" r="6" fill="#9CA3AF" opacity="0.6"/><circle cx="308" cy="38" r="6" fill="#9CA3AF" opacity="0.6"/><circle cx="326" cy="38" r="6" fill="#9CA3AF" opacity="0.6"/><circle cx="344" cy="38" r="6" fill="#9CA3AF" opacity="0.6"/><circle cx="362" cy="38" r="6" fill="#9CA3AF" opacity="0.6"/><circle cx="380" cy="38" r="6" fill="#9CA3AF" opacity="0.6"/><circle cx="398" cy="38" r="6" fill="#9CA3AF" opacity="0.6"/><circle cx="416" cy="38" r="6" fill="#9CA3AF" opacity="0.6"/><circle cx="434" cy="38" r="6" fill="#9CA3AF" opacity="0.6"/><circle cx="452" cy="38" r="6" fill="#9CA3AF" opacity="0.6"/><circle cx="20" cy="56" r="6" fill="#9CA3AF" opacity="0.6"/><circle cx="38" cy="56" r="6" fill="#9CA3AF" opacity="0.6"/><circle cx="56" cy="56" r="6" fill="#9CA3AF" opacity="0.6"/><circle cx="74" cy="56" r="6" fill="#9CA3AF" opacity="0.6"/><circle cx="92" cy="56" r="6" fill="#9CA3AF" opacity="0.6"/><circle cx="110" cy="56" r="6" fill="#9CA3AF" opacity="0.6"/><circle cx="128" cy="56" r="6" fill="#9CA3AF" opacity="0.6"/><circle cx="146" cy="56" r="6" fill="#9CA3AF" opacity="0.6"/><circle cx="164" cy="56" r="6" fill="#9CA3AF" opacity="0.6"/><circle cx="182" cy="56" r="6" fill="#3B82F6" opacity="1"/><circle cx="200" cy="56" r="6" fill="#9CA3AF" opacity="0.6"/><circle cx="218" cy="56" r="6" fill="#9CA3AF" opacity="0.6"/><circle cx="236" cy="56" r="6" fill="#9CA3AF" opacity="0.6"/><circle cx="254" cy="56" r="6" fill="#9CA3AF" opacity="0.6"/><circle cx="272" cy="56" r="6" fill="#9CA3AF" opacity="0.6"/><circle cx="290" cy="56" r="6" fill="#9CA3AF" opacity="0.6"/><circle cx="308" cy="56" r="6" fill="#9CA3AF" opacity="0.6"/><circle cx="326" cy="56" r="6" fill="#9CA3AF" opacity="0.6"/><circle cx="344" cy="56" r="6" fill="#9CA3AF" opacity="0.6"/><circle cx="362" cy="56" r="6" fill="#9CA3AF" opacity="0.6"/><circle cx="380" cy="56" r="6" fill="#9CA3AF" opacity="0.6"/><circle cx="398" cy="56" r="6" fill="#9CA3AF" opacity="0.6"/><circle cx="416" cy="56" r="6" fill="#3B82F6" opacity="1"/><circle cx="434" cy="56" r="6" fill="#9CA3AF" opacity="0.6"/><circle cx="452" cy="56" r="6" fill="#9CA3AF" opacity="0.6"/><circle cx="20" cy="74" r="6" fill="#9CA3AF" opacity="0.6"/><circle cx="38" cy="74" r="6" fill="#9CA3AF" opacity="0.6"/><circle cx="56" cy="74" r="6" fill="#9CA3AF" opacity="0.6"/><circle cx="74" cy="74" r="6" fill="#9CA3AF" opacity="0.6"/><circle cx="92" cy="74" r="6" fill="#9CA3AF" opacity="0.6"/><circle cx="110" cy="74" r="6" fill="#9CA3AF" opacity="0.6"/><circle cx="128" cy="74" r="6" fill="#9CA3AF" opacity="0.6"/><circle cx="146" cy="74" r="6" fill="#9CA3AF" opacity="0.6"/><circle cx="164" cy="74" r="6" fill="#9CA3AF" opacity="0.6"/><circle cx="182" cy="74" r="6" fill="#9CA3AF" opacity="0.6"/><circle cx="200" cy="74" r="6" fill="#9CA3AF" opacity="0.6"/><circle cx="218" cy="74" r="6" fill="#9CA3AF" opacity="0.6"/><circle cx="236" cy="74" r="6" fill="#3B82F6" opacity="1"/><circle cx="254" cy="74" r="6" fill="#9CA3AF" opacity="0.6"/><circle cx="272" cy="74" r="6" fill="#9CA3AF" opacity="0.6"/><circle cx="290" cy="74" r="6" fill="#9CA3AF" opacity="0.6"/><circle cx="308" cy="74" r="6" fill="#9CA3AF" opacity="0.6"/><circle cx="326" cy="74" r="6" fill="#9CA3AF" opacity="0.6"/><circle cx="344" cy="74" r="6" fill="#9CA3AF" opacity="0.6"/><circle cx="362" cy="74" r="6" fill="#9CA3AF" opacity="0.6"/><circle cx="380" cy="74" r="6" fill="#9CA3AF" opacity="0.6"/><circle cx="398" cy="74" r="6" fill="#9CA3AF" opacity="0.6"/><circle cx="416" cy="74" r="6" fill="#9CA3AF" opacity="0.6"/><circle cx="434" cy="74" r="6" fill="#9CA3AF" opacity="0.6"/><circle cx="452" cy="74" r="6" fill="#9CA3AF" opacity="0.6"/><circle cx="20" cy="92" r="6" fill="#9CA3AF" opacity="0.6"/><circle cx="38" cy="92" r="6" fill="#9CA3AF" opacity="0.6"/><circle cx="56" cy="92" r="6" fill="#9CA3AF" opacity="0.6"/><circle cx="74" cy="92" r="6" fill="#9CA3AF" opacity="0.6"/><circle cx="92" cy="92" r="6" fill="#9CA3AF" opacity="0.6"/><circle cx="110" cy="92" r="6" fill="#9CA3AF" opacity="0.6"/><circle cx="128" cy="92" r="6" fill="#9CA3AF" opacity="0.6"/><circle cx="146" cy="92" r="6" fill="#9CA3AF" opacity="0.6"/><circle cx="164" cy="92" r="6" fill="#9CA3AF" opacity="0.6"/><circle cx="182" cy="92" r="6" fill="#9CA3AF" opacity="0.6"/><circle cx="200" cy="92" r="6" fill="#9CA3AF" opacity="0.6"/><circle cx="218" cy="92" r="6" fill="#9CA3AF" opacity="0.6"/><circle cx="236" cy="92" r="6" fill="#9CA3AF" opacity="0.6"/><circle cx="254" cy="92" r="6" fill="#9CA3AF" opacity="0.6"/><circle cx="272" cy="92" r="6" fill="#9CA3AF" opacity="0.6"/><circle cx="290" cy="92" r="6" fill="#9CA3AF" opacity="0.6"/><circle cx="308" cy="92" r="6" fill="#9CA3AF" opacity="0.6"/><circle cx="326" cy="92" r="6" fill="#9CA3AF" opacity="0.6"/><circle cx="344" cy="92" r="6" fill="#9CA3AF" opacity="0.6"/><circle cx="362" cy="92" r="6" fill="#9CA3AF" opacity="0.6"/><circle cx="380" cy="92" r="6" fill="#9CA3AF" opacity="0.6"/><circle cx="398" cy="92" r="6" fill="#9CA3AF" opacity="0.6"/><circle cx="416" cy="92" r="6" fill="#9CA3AF" opacity="0.6"/><circle cx="434" cy="92" r="6" fill="#9CA3AF" opacity="0.6"/><circle cx="452" cy="92" r="6" fill="#9CA3AF" opacity="0.6"/><circle cx="20" cy="110" r="6" fill="#9CA3AF" opacity="0.6"/><circle cx="38" cy="110" r="6" fill="#9CA3AF" opacity="0.6"/><circle cx="56" cy="110" r="6" fill="#9CA3AF" opacity="0.6"/><circle cx="74" cy="110" r="6" fill="#9CA3AF" opacity="0.6"/><circle cx="92" cy="110" r="6" fill="#9CA3AF" opacity="0.6"/><circle cx="110" cy="110" r="6" fill="#9CA3AF" opacity="0.6"/><circle cx="128" cy="110" r="6" fill="#9CA3AF" opacity="0.6"/><circle cx="146" cy="110" r="6" fill="#9CA3AF" opacity="0.6"/><circle cx="164" cy="110" r="6" fill="#9CA3AF" opacity="0.6"/><circle cx="182" cy="110" r="6" fill="#9CA3AF" opacity="0.6"/><circle cx="200" cy="110" r="6" fill="#9CA3AF" opacity="0.6"/><circle cx="218" cy="110" r="6" fill="#9CA3AF" opacity="0.6"/><circle cx="236" cy="110" r="6" fill="#9CA3AF" opacity="0.6"/><circle cx="254" cy="110" r="6" fill="#9CA3AF" opacity="0.6"/><circle cx="272" cy="110" r="6" fill="#3B82F6" opacity="1"/><circle cx="290" cy="110" r="6" fill="#9CA3AF" opacity="0.6"/><circle cx="308" cy="110" r="6" fill="#9CA3AF" opacity="0.6"/><circle cx="326" cy="110" r="6" fill="#9CA3AF" opacity="0.6"/><circle cx="344" cy="110" r="6" fill="#9CA3AF" opacity="0.6"/><circle cx="362" cy="110" r="6" fill="#9CA3AF" opacity="0.6"/><circle cx="380" cy="110" r="6" fill="#9CA3AF" opacity="0.6"/><circle cx="398" cy="110" r="6" fill="#9CA3AF" opacity="0.6"/><circle cx="416" cy="110" r="6" fill="#9CA3AF" opacity="0.6"/><circle cx="434" cy="110" r="6" fill="#9CA3AF" opacity="0.6"/><circle cx="452" cy="110" r="6" fill="#9CA3AF" opacity="0.6"/><circle cx="20" cy="128" r="6" fill="#9CA3AF" opacity="0.6"/><circle cx="38" cy="128" r="6" fill="#9CA3AF" opacity="0.6"/><circle cx="56" cy="128" r="6" fill="#9CA3AF" opacity="0.6"/><circle cx="74" cy="128" r="6" fill="#9CA3AF" opacity="0.6"/><circle cx="92" cy="128" r="6" fill="#9CA3AF" opacity="0.6"/><circle cx="110" cy="128" r="6" fill="#9CA3AF" opacity="0.6"/><circle cx="128" cy="128" r="6" fill="#9CA3AF" opacity="0.6"/><circle cx="146" cy="128" r="6" fill="#9CA3AF" opacity="0.6"/><circle cx="164" cy="128" r="6" fill="#9CA3AF" opacity="0.6"/><circle cx="182" cy="128" r="6" fill="#9CA3AF" opacity="0.6"/><circle cx="200" cy="128" r="6" fill="#9CA3AF" opacity="0.6"/><circle cx="218" cy="128" r="6" fill="#9CA3AF" opacity="0.6"/><circle cx="236" cy="128" r="6" fill="#9CA3AF" opacity="0.6"/><circle cx="254" cy="128" r="6" fill="#9CA3AF" opacity="0.6"/><circle cx="272" cy="128" r="6" fill="#9CA3AF" opacity="0.6"/><circle cx="290" cy="128" r="6" fill="#9CA3AF" opacity="0.6"/><circle cx="308" cy="128" r="6" fill="#9CA3AF" opacity="0.6"/><circle cx="326" cy="128" r="6" fill="#9CA3AF" opacity="0.6"/><circle cx="344" cy="128" r="6" fill="#9CA3AF" opacity="0.6"/><circle cx="362" cy="128" r="6" fill="#9CA3AF" opacity="0.6"/><circle cx="380" cy="128" r="6" fill="#9CA3AF" opacity="0.6"/><circle cx="398" cy="128" r="6" fill="#9CA3AF" opacity="0.6"/><circle cx="416" cy="128" r="6" fill="#9CA3AF" opacity="0.6"/><circle cx="434" cy="128" r="6" fill="#9CA3AF" opacity="0.6"/><circle cx="452" cy="128" r="6" fill="#9CA3AF" opacity="0.6"/><circle cx="20" cy="146" r="6" fill="#9CA3AF" opacity="0.6"/><circle cx="38" cy="146" r="6" fill="#9CA3AF" opacity="0.6"/><circle cx="56" cy="146" r="6" fill="#9CA3AF" opacity="0.6"/><circle cx="74" cy="146" r="6" fill="#9CA3AF" opacity="0.6"/><circle cx="92" cy="146" r="6" fill="#9CA3AF" opacity="0.6"/><circle cx="110" cy="146" r="6" fill="#9CA3AF" opacity="0.6"/><circle cx="128" cy="146" r="6" fill="#9CA3AF" opacity="0.6"/><circle cx="146" cy="146" r="6" fill="#9CA3AF" opacity="0.6"/><circle cx="164" cy="146" r="6" fill="#9CA3AF" opacity="0.6"/><circle cx="182" cy="146" r="6" fill="#9CA3AF" opacity="0.6"/><circle cx="200" cy="146" r="6" fill="#9CA3AF" opacity="0.6"/><circle cx="218" cy="146" r="6" fill="#9CA3AF" opacity="0.6"/><circle cx="236" cy="146" r="6" fill="#9CA3AF" opacity="0.6"/><circle cx="254" cy="146" r="6" fill="#9CA3AF" opacity="0.6"/><circle cx="272" cy="146" r="6" fill="#9CA3AF" opacity="0.6"/><circle cx="290" cy="146" r="6" fill="#9CA3AF" opacity="0.6"/><circle cx="308" cy="146" r="6" fill="#9CA3AF" opacity="0.6"/><circle cx="326" cy="146" r="6" fill="#9CA3AF" opacity="0.6"/><circle cx="344" cy="146" r="6" fill="#9CA3AF" opacity="0.6"/><circle cx="362" cy="146" r="6" fill="#9CA3AF" opacity="0.6"/><circle cx="380" cy="146" r="6" fill="#3B82F6" opacity="1"/><circle cx="398" cy="146" r="6" fill="#9CA3AF" opacity="0.6"/><circle cx="416" cy="146" r="6" fill="#9CA3AF" opacity="0.6"/><circle cx="434" cy="146" r="6" fill="#9CA3AF" opacity="0.6"/><circle cx="452" cy="146" r="6" fill="#9CA3AF" opacity="0.6"/><circle cx="20" cy="164" r="6" fill="#9CA3AF" opacity="0.6"/><circle cx="38" cy="164" r="6" fill="#9CA3AF" opacity="0.6"/><circle cx="56" cy="164" r="6" fill="#9CA3AF" opacity="0.6"/><circle cx="74" cy="164" r="6" fill="#9CA3AF" opacity="0.6"/><circle cx="92" cy="164" r="6" fill="#9CA3AF" opacity="0.6"/><circle cx="110" cy="164" r="6" fill="#9CA3AF" opacity="0.6"/><circle cx="128" cy="164" r="6" fill="#9CA3AF" opacity="0.6"/><circle cx="146" cy="164" r="6" fill="#9CA3AF" opacity="0.6"/><circle cx="164" cy="164" r="6" fill="#9CA3AF" opacity="0.6"/><circle cx="182" cy="164" r="6" fill="#9CA3AF" opacity="0.6"/><circle cx="200" cy="164" r="6" fill="#3B82F6" opacity="1"/><circle cx="218" cy="164" r="6" fill="#9CA3AF" opacity="0.6"/><circle cx="236" cy="164" r="6" fill="#9CA3AF" opacity="0.6"/><circle cx="254" cy="164" r="6" fill="#9CA3AF" opacity="0.6"/><circle cx="272" cy="164" r="6" fill="#3B82F6" opacity="1"/><circle cx="290" cy="164" r="6" fill="#9CA3AF" opacity="0.6"/><circle cx="308" cy="164" r="6" fill="#3B82F6" opacity="1"/><circle cx="326" cy="164" r="6" fill="#9CA3AF" opacity="0.6"/><circle cx="344" cy="164" r="6" fill="#3B82F6" opacity="1"/><circle cx="362" cy="164" r="6" fill="#9CA3AF" opacity="0.6"/><circle cx="380" cy="164" r="6" fill="#9CA3AF" opacity="0.6"/><circle cx="398" cy="164" r="6" fill="#9CA3AF" opacity="0.6"/><circle cx="416" cy="164" r="6" fill="#9CA3AF" opacity="0.6"/><circle cx="434" cy="164" r="6" fill="#9CA3AF" opacity="0.6"/><circle cx="452" cy="164" r="6" fill="#9CA3AF" opacity="0.6"/><circle cx="20" cy="182" r="6" fill="#9CA3AF" opacity="0.6"/><circle cx="38" cy="182" r="6" fill="#9CA3AF" opacity="0.6"/><circle cx="56" cy="182" r="6" fill="#9CA3AF" opacity="0.6"/><circle cx="74" cy="182" r="6" fill="#9CA3AF" opacity="0.6"/><circle cx="92" cy="182" r="6" fill="#3B82F6" opacity="1"/><circle cx="110" cy="182" r="6" fill="#9CA3AF" opacity="0.6"/><circle cx="128" cy="182" r="6" fill="#9CA3AF" opacity="0.6"/><circle cx="146" cy="182" r="6" fill="#9CA3AF" opacity="0.6"/><circle cx="164" cy="182" r="6" fill="#9CA3AF" opacity="0.6"/><circle cx="182" cy="182" r="6" fill="#9CA3AF" opacity="0.6"/><circle cx="200" cy="182" r="6" fill="#9CA3AF" opacity="0.6"/><circle cx="218" cy="182" r="6" fill="#9CA3AF" opacity="0.6"/><circle cx="236" cy="182" r="6" fill="#9CA3AF" opacity="0.6"/><circle cx="254" cy="182" r="6" fill="#9CA3AF" opacity="0.6"/><circle cx="272" cy="182" r="6" fill="#9CA3AF" opacity="0.6"/><circle cx="290" cy="182" r="6" fill="#3B82F6" opacity="1"/><circle cx="308" cy="182" r="6" fill="#9CA3AF" opacity="0.6"/><circle cx="326" cy="182" r="6" fill="#9CA3AF" opacity="0.6"/><circle cx="344" cy="182" r="6" fill="#9CA3AF" opacity="0.6"/><circle cx="362" cy="182" r="6" fill="#9CA3AF" opacity="0.6"/><circle cx="380" cy="182" r="6" fill="#9CA3AF" opacity="0.6"/><circle cx="398" cy="182" r="6" fill="#9CA3AF" opacity="0.6"/><circle cx="416" cy="182" r="6" fill="#9CA3AF" opacity="0.6"/><circle cx="434" cy="182" r="6" fill="#9CA3AF" opacity="0.6"/><circle cx="452" cy="182" r="6" fill="#9CA3AF" opacity="0.6"/><circle cx="20" cy="200" r="6" fill="#9CA3AF" opacity="0.6"/><circle cx="38" cy="200" r="6" fill="#9CA3AF" opacity="0.6"/><circle cx="56" cy="200" r="6" fill="#9CA3AF" opacity="0.6"/><circle cx="74" cy="200" r="6" fill="#9CA3AF" opacity="0.6"/><circle cx="92" cy="200" r="6" fill="#9CA3AF" opacity="0.6"/><circle cx="110" cy="200" r="6" fill="#9CA3AF" opacity="0.6"/><circle cx="128" cy="200" r="6" fill="#9CA3AF" opacity="0.6"/><circle cx="146" cy="200" r="6" fill="#9CA3AF" opacity="0.6"/><circle cx="164" cy="200" r="6" fill="#9CA3AF" opacity="0.6"/><circle cx="182" cy="200" r="6" fill="#9CA3AF" opacity="0.6"/><circle cx="200" cy="200" r="6" fill="#9CA3AF" opacity="0.6"/><circle cx="218" cy="200" r="6" fill="#9CA3AF" opacity="0.6"/><circle cx="236" cy="200" r="6" fill="#9CA3AF" opacity="0.6"/><circle cx="254" cy="200" r="6" fill="#9CA3AF" opacity="0.6"/><circle cx="272" cy="200" r="6" fill="#9CA3AF" opacity="0.6"/><circle cx="290" cy="200" r="6" fill="#9CA3AF" opacity="0.6"/><circle cx="308" cy="200" r="6" fill="#9CA3AF" opacity="0.6"/><circle cx="326" cy="200" r="6" fill="#9CA3AF" opacity="0.6"/><circle cx="344" cy="200" r="6" fill="#9CA3AF" opacity="0.6"/><circle cx="362" cy="200" r="6" fill="#9CA3AF" opacity="0.6"/><circle cx="380" cy="200" r="6" fill="#9CA3AF" opacity="0.6"/><circle cx="398" cy="200" r="6" fill="#9CA3AF" opacity="0.6"/><circle cx="416" cy="200" r="6" fill="#9CA3AF" opacity="0.6"/><circle cx="434" cy="200" r="6" fill="#9CA3AF" opacity="0.6"/><circle cx="452" cy="200" r="6" fill="#9CA3AF" opacity="0.6"/><circle cx="20" cy="218" r="6" fill="#9CA3AF" opacity="0.6"/><circle cx="38" cy="218" r="6" fill="#9CA3AF" opacity="0.6"/><circle cx="56" cy="218" r="6" fill="#9CA3AF" opacity="0.6"/><circle cx="74" cy="218" r="6" fill="#9CA3AF" opacity="0.6"/><circle cx="92" cy="218" r="6" fill="#9CA3AF" opacity="0.6"/><circle cx="110" cy="218" r="6" fill="#9CA3AF" opacity="0.6"/><circle cx="128" cy="218" r="6" fill="#9CA3AF" opacity="0.6"/><circle cx="146" cy="218" r="6" fill="#9CA3AF" opacity="0.6"/><circle cx="164" cy="218" r="6" fill="#9CA3AF" opacity="0.6"/><circle cx="182" cy="218" r="6" fill="#9CA3AF" opacity="0.6"/><circle cx="200" cy="218" r="6" fill="#9CA3AF" opacity="0.6"/><circle cx="218" cy="218" r="6" fill="#9CA3AF" opacity="0.6"/><circle cx="236" cy="218" r="6" fill="#9CA3AF" opacity="0.6"/><circle cx="254" cy="218" r="6" fill="#9CA3AF" opacity="0.6"/><circle cx="272" cy="218" r="6" fill="#9CA3AF" opacity="0.6"/><circle cx="290" cy="218" r="6" fill="#9CA3AF" opacity="0.6"/><circle cx="308" cy="218" r="6" fill="#9CA3AF" opacity="0.6"/><circle cx="326" cy="218" r="6" fill="#9CA3AF" opacity="0.6"/><circle cx="344" cy="218" r="6" fill="#9CA3AF" opacity="0.6"/><circle cx="362" cy="218" r="6" fill="#9CA3AF" opacity="0.6"/><circle cx="380" cy="218" r="6" fill="#9CA3AF" opacity="0.6"/><circle cx="398" cy="218" r="6" fill="#9CA3AF" opacity="0.6"/><circle cx="416" cy="218" r="6" fill="#9CA3AF" opacity="0.6"/><circle cx="434" cy="218" r="6" fill="#9CA3AF" opacity="0.6"/><circle cx="452" cy="218" r="6" fill="#9CA3AF" opacity="0.6"/><circle cx="20" cy="236" r="6" fill="#9CA3AF" opacity="0.6"/><circle cx="38" cy="236" r="6" fill="#9CA3AF" opacity="0.6"/><circle cx="56" cy="236" r="6" fill="#9CA3AF" opacity="0.6"/><circle cx="74" cy="236" r="6" fill="#9CA3AF" opacity="0.6"/><circle cx="92" cy="236" r="6" fill="#9CA3AF" opacity="0.6"/><circle cx="110" cy="236" r="6" fill="#9CA3AF" opacity="0.6"/><circle cx="128" cy="236" r="6" fill="#9CA3AF" opacity="0.6"/><circle cx="146" cy="236" r="6" fill="#9CA3AF" opacity="0.6"/><circle cx="164" cy="236" r="6" fill="#9CA3AF" opacity="0.6"/><circle cx="182" cy="236" r="6" fill="#9CA3AF" opacity="0.6"/><circle cx="200" cy="236" r="6" fill="#9CA3AF" opacity="0.6"/><circle cx="218" cy="236" r="6" fill="#9CA3AF" opacity="0.6"/><circle cx="236" cy="236" r="6" fill="#9CA3AF" opacity="0.6"/><circle cx="254" cy="236" r="6" fill="#9CA3AF" opacity="0.6"/><circle cx="272" cy="236" r="6" fill="#9CA3AF" opacity="0.6"/><circle cx="290" cy="236" r="6" fill="#9CA3AF" opacity="0.6"/><circle cx="308" cy="236" r="6" fill="#9CA3AF" opacity="0.6"/><circle cx="326" cy="236" r="6" fill="#9CA3AF" opacity="0.6"/><circle cx="344" cy="236" r="6" fill="#9CA3AF" opacity="0.6"/><circle cx="362" cy="236" r="6" fill="#9CA3AF" opacity="0.6"/><circle cx="380" cy="236" r="6" fill="#9CA3AF" opacity="0.6"/><circle cx="398" cy="236" r="6" fill="#9CA3AF" opacity="0.6"/><circle cx="416" cy="236" r="6" fill="#3B82F6" opacity="1"/><circle cx="434" cy="236" r="6" fill="#9CA3AF" opacity="0.6"/><circle cx="452" cy="236" r="6" fill="#3B82F6" opacity="1"/><circle cx="20" cy="254" r="6" fill="#9CA3AF" opacity="0.6"/><circle cx="38" cy="254" r="6" fill="#9CA3AF" opacity="0.6"/><circle cx="56" cy="254" r="6" fill="#9CA3AF" opacity="0.6"/><circle cx="74" cy="254" r="6" fill="#9CA3AF" opacity="0.6"/><circle cx="92" cy="254" r="6" fill="#9CA3AF" opacity="0.6"/><circle cx="110" cy="254" r="6" fill="#9CA3AF" opacity="0.6"/><circle cx="128" cy="254" r="6" fill="#9CA3AF" opacity="0.6"/><circle cx="146" cy="254" r="6" fill="#9CA3AF" opacity="0.6"/><circle cx="164" cy="254" r="6" fill="#9CA3AF" opacity="0.6"/><circle cx="182" cy="254" r="6" fill="#9CA3AF" opacity="0.6"/><circle cx="200" cy="254" r="6" fill="#9CA3AF" opacity="0.6"/><circle cx="218" cy="254" r="6" fill="#9CA3AF" opacity="0.6"/><circle cx="236" cy="254" r="6" fill="#9CA3AF" opacity="0.6"/><circle cx="254" cy="254" r="6" fill="#9CA3AF" opacity="0.6"/><circle cx="272" cy="254" r="6" fill="#9CA3AF" opacity="0.6"/><circle cx="290" cy="254" r="6" fill="#9CA3AF" opacity="0.6"/><circle cx="308" cy="254" r="6" fill="#9CA3AF" opacity="0.6"/><circle cx="326" cy="254" r="6" fill="#9CA3AF" opacity="0.6"/><circle cx="344" cy="254" r="6" fill="#3B82F6" opacity="1"/><circle cx="362" cy="254" r="6" fill="#9CA3AF" opacity="0.6"/><circle cx="380" cy="254" r="6" fill="#9CA3AF" opacity="0.6"/><circle cx="398" cy="254" r="6" fill="#9CA3AF" opacity="0.6"/><circle cx="416" cy="254" r="6" fill="#9CA3AF" opacity="0.6"/><circle cx="434" cy="254" r="6" fill="#9CA3AF" opacity="0.6"/><circle cx="452" cy="254" r="6" fill="#9CA3AF" opacity="0.6"/><circle cx="20" cy="272" r="6" fill="#9CA3AF" opacity="0.6"/><circle cx="38" cy="272" r="6" fill="#9CA3AF" opacity="0.6"/><circle cx="56" cy="272" r="6" fill="#9CA3AF" opacity="0.6"/><circle cx="74" cy="272" r="6" fill="#9CA3AF" opacity="0.6"/><circle cx="92" cy="272" r="6" fill="#9CA3AF" opacity="0.6"/><circle cx="110" cy="272" r="6" fill="#9CA3AF" opacity="0.6"/><circle cx="128" cy="272" r="6" fill="#9CA3AF" opacity="0.6"/><circle cx="146" cy="272" r="6" fill="#9CA3AF" opacity="0.6"/><circle cx="164" cy="272" r="6" fill="#9CA3AF" opacity="0.6"/><circle cx="182" cy="272" r="6" fill="#9CA3AF" opacity="0.6"/><circle cx="200" cy="272" r="6" fill="#9CA3AF" opacity="0.6"/><circle cx="218" cy="272" r="6" fill="#9CA3AF" opacity="0.6"/><circle cx="236" cy="272" r="6" fill="#9CA3AF" opacity="0.6"/><circle cx="254" cy="272" r="6" fill="#9CA3AF" opacity="0.6"/><circle cx="272" cy="272" r="6" fill="#9CA3AF" opacity="0.6"/><circle cx="290" cy="272" r="6" fill="#9CA3AF" opacity="0.6"/><circle cx="308" cy="272" r="6" fill="#9CA3AF" opacity="0.6"/><circle cx="326" cy="272" r="6" fill="#9CA3AF" opacity="0.6"/><circle cx="344" cy="272" r="6" fill="#9CA3AF" opacity="0.6"/><circle cx="362" cy="272" r="6" fill="#9CA3AF" opacity="0.6"/><circle cx="380" cy="272" r="6" fill="#9CA3AF" opacity="0.6"/><circle cx="398" cy="272" r="6" fill="#9CA3AF" opacity="0.6"/><circle cx="416" cy="272" r="6" fill="#9CA3AF" opacity="0.6"/><circle cx="434" cy="272" r="6" fill="#9CA3AF" opacity="0.6"/><circle cx="452" cy="272" r="6" fill="#9CA3AF" opacity="0.6"/><circle cx="20" cy="290" r="6" fill="#9CA3AF" opacity="0.6"/><circle cx="38" cy="290" r="6" fill="#9CA3AF" opacity="0.6"/><circle cx="56" cy="290" r="6" fill="#3B82F6" opacity="1"/><circle cx="74" cy="290" r="6" fill="#9CA3AF" opacity="0.6"/><circle cx="92" cy="290" r="6" fill="#9CA3AF" opacity="0.6"/><circle cx="110" cy="290" r="6" fill="#9CA3AF" opacity="0.6"/><circle cx="128" cy="290" r="6" fill="#9CA3AF" opacity="0.6"/><circle cx="146" cy="290" r="6" fill="#9CA3AF" opacity="0.6"/><circle cx="164" cy="290" r="6" fill="#9CA3AF" opacity="0.6"/><circle cx="182" cy="290" r="6" fill="#9CA3AF" opacity="0.6"/><circle cx="200" cy="290" r="6" fill="#9CA3AF" opacity="0.6"/><circle cx="218" cy="290" r="6" fill="#9CA3AF" opacity="0.6"/><circle cx="236" cy="290" r="6" fill="#9CA3AF" opacity="0.6"/><circle cx="254" cy="290" r="6" fill="#9CA3AF" opacity="0.6"/><circle cx="272" cy="290" r="6" fill="#9CA3AF" opacity="0.6"/><circle cx="290" cy="290" r="6" fill="#9CA3AF" opacity="0.6"/><circle cx="308" cy="290" r="6" fill="#9CA3AF" opacity="0.6"/><circle cx="326" cy="290" r="6" fill="#9CA3AF" opacity="0.6"/><circle cx="344" cy="290" r="6" fill="#9CA3AF" opacity="0.6"/><circle cx="362" cy="290" r="6" fill="#9CA3AF" opacity="0.6"/><circle cx="380" cy="290" r="6" fill="#3B82F6" opacity="1"/><circle cx="398" cy="290" r="6" fill="#9CA3AF" opacity="0.6"/><circle cx="416" cy="290" r="6" fill="#9CA3AF" opacity="0.6"/><circle cx="434" cy="290" r="6" fill="#9CA3AF" opacity="0.6"/><circle cx="452" cy="290" r="6" fill="#9CA3AF" opacity="0.6"/><circle cx="20" cy="308" r="6" fill="#9CA3AF" opacity="0.6"/><circle cx="38" cy="308" r="6" fill="#9CA3AF" opacity="0.6"/><circle cx="56" cy="308" r="6" fill="#9CA3AF" opacity="0.6"/><circle cx="74" cy="308" r="6" fill="#9CA3AF" opacity="0.6"/><circle cx="92" cy="308" r="6" fill="#9CA3AF" opacity="0.6"/><circle cx="110" cy="308" r="6" fill="#9CA3AF" opacity="0.6"/><circle cx="128" cy="308" r="6" fill="#9CA3AF" opacity="0.6"/><circle cx="146" cy="308" r="6" fill="#3B82F6" opacity="1"/><circle cx="164" cy="308" r="6" fill="#3B82F6" opacity="1"/><circle cx="182" cy="308" r="6" fill="#9CA3AF" opacity="0.6"/><circle cx="200" cy="308" r="6" fill="#9CA3AF" opacity="0.6"/><circle cx="218" cy="308" r="6" fill="#9CA3AF" opacity="0.6"/><circle cx="236" cy="308" r="6" fill="#9CA3AF" opacity="0.6"/><circle cx="254" cy="308" r="6" fill="#3B82F6" opacity="1"/><circle cx="272" cy="308" r="6" fill="#9CA3AF" opacity="0.6"/><circle cx="290" cy="308" r="6" fill="#9CA3AF" opacity="0.6"/><circle cx="308" cy="308" r="6" fill="#9CA3AF" opacity="0.6"/><circle cx="326" cy="308" r="6" fill="#9CA3AF" opacity="0.6"/><circle cx="344" cy="308" r="6" fill="#9CA3AF" opacity="0.6"/><circle cx="362" cy="308" r="6" fill="#9CA3AF" opacity="0.6"/><circle cx="380" cy="308" r="6" fill="#9CA3AF" opacity="0.6"/><circle cx="398" cy="308" r="6" fill="#9CA3AF" opacity="0.6"/><circle cx="416" cy="308" r="6" fill="#9CA3AF" opacity="0.6"/><circle cx="434" cy="308" r="6" fill="#9CA3AF" opacity="0.6"/><circle cx="452" cy="308" r="6" fill="#9CA3AF" opacity="0.6"/><circle cx="20" cy="326" r="6" fill="#9CA3AF" opacity="0.6"/><circle cx="38" cy="326" r="6" fill="#9CA3AF" opacity="0.6"/><circle cx="56" cy="326" r="6" fill="#9CA3AF" opacity="0.6"/><circle cx="74" cy="326" r="6" fill="#9CA3AF" opacity="0.6"/><circle cx="92" cy="326" r="6" fill="#9CA3AF" opacity="0.6"/><circle cx="110" cy="326" r="6" fill="#9CA3AF" opacity="0.6"/><circle cx="128" cy="326" r="6" fill="#9CA3AF" opacity="0.6"/><circle cx="146" cy="326" r="6" fill="#9CA3AF" opacity="0.6"/><circle cx="164" cy="326" r="6" fill="#9CA3AF" opacity="0.6"/><circle cx="182" cy="326" r="6" fill="#9CA3AF" opacity="0.6"/><circle cx="200" cy="326" r="6" fill="#9CA3AF" opacity="0.6"/><circle cx="218" cy="326" r="6" fill="#9CA3AF" opacity="0.6"/><circle cx="236" cy="326" r="6" fill="#9CA3AF" opacity="0.6"/><circle cx="254" cy="326" r="6" fill="#9CA3AF" opacity="0.6"/><circle cx="272" cy="326" r="6" fill="#9CA3AF" opacity="0.6"/><circle cx="290" cy="326" r="6" fill="#9CA3AF" opacity="0.6"/><circle cx="308" cy="326" r="6" fill="#3B82F6" opacity="1"/><circle cx="326" cy="326" r="6" fill="#9CA3AF" opacity="0.6"/><circle cx="344" cy="326" r="6" fill="#3B82F6" opacity="1"/><circle cx="362" cy="326" r="6" fill="#9CA3AF" opacity="0.6"/><circle cx="380" cy="326" r="6" fill="#9CA3AF" opacity="0.6"/><circle cx="398" cy="326" r="6" fill="#9CA3AF" opacity="0.6"/><circle cx="416" cy="326" r="6" fill="#9CA3AF" opacity="0.6"/><circle cx="434" cy="326" r="6" fill="#9CA3AF" opacity="0.6"/><circle cx="452" cy="326" r="6" fill="#9CA3AF" opacity="0.6"/><circle cx="20" cy="344" r="6" fill="#9CA3AF" opacity="0.6"/><circle cx="38" cy="344" r="6" fill="#9CA3AF" opacity="0.6"/><circle cx="56" cy="344" r="6" fill="#9CA3AF" opacity="0.6"/><circle cx="74" cy="344" r="6" fill="#3B82F6" opacity="1"/><circle cx="92" cy="344" r="6" fill="#9CA3AF" opacity="0.6"/><circle cx="110" cy="344" r="6" fill="#9CA3AF" opacity="0.6"/><circle cx="128" cy="344" r="6" fill="#9CA3AF" opacity="0.6"/><circle cx="146" cy="344" r="6" fill="#9CA3AF" opacity="0.6"/><circle cx="164" cy="344" r="6" fill="#9CA3AF" opacity="0.6"/><circle cx="182" cy="344" r="6" fill="#3B82F6" opacity="1"/><circle cx="200" cy="344" r="6" fill="#9CA3AF" opacity="0.6"/><circle cx="218" cy="344" r="6" fill="#9CA3AF" opacity="0.6"/><circle cx="236" cy="344" r="6" fill="#9CA3AF" opacity="0.6"/><circle cx="254" cy="344" r="6" fill="#9CA3AF" opacity="0.6"/><circle cx="272" cy="344" r="6" fill="#3B82F6" opacity="1"/><circle cx="290" cy="344" r="6" fill="#9CA3AF" opacity="0.6"/><circle cx="308" cy="344" r="6" fill="#9CA3AF" opacity="0.6"/><circle cx="326" cy="344" r="6" fill="#9CA3AF" opacity="0.6"/><circle cx="344" cy="344" r="6" fill="#9CA3AF" opacity="0.6"/><circle cx="362" cy="344" r="6" fill="#9CA3AF" opacity="0.6"/><circle cx="380" cy="344" r="6" fill="#9CA3AF" opacity="0.6"/><circle cx="398" cy="344" r="6" fill="#9CA3AF" opacity="0.6"/><circle cx="416" cy="344" r="6" fill="#9CA3AF" opacity="0.6"/><circle cx="434" cy="344" r="6" fill="#9CA3AF" opacity="0.6"/><circle cx="452" cy="344" r="6" fill="#9CA3AF" opacity="0.6"/><circle cx="20" cy="362" r="6" fill="#9CA3AF" opacity="0.6"/><circle cx="38" cy="362" r="6" fill="#9CA3AF" opacity="0.6"/><circle cx="56" cy="362" r="6" fill="#3B82F6" opacity="1"/><circle cx="74" cy="362" r="6" fill="#9CA3AF" opacity="0.6"/><circle cx="92" cy="362" r="6" fill="#9CA3AF" opacity="0.6"/><circle cx="110" cy="362" r="6" fill="#9CA3AF" opacity="0.6"/><circle cx="128" cy="362" r="6" fill="#9CA3AF" opacity="0.6"/><circle cx="146" cy="362" r="6" fill="#9CA3AF" opacity="0.6"/><circle cx="164" cy="362" r="6" fill="#9CA3AF" opacity="0.6"/><circle cx="182" cy="362" r="6" fill="#9CA3AF" opacity="0.6"/><circle cx="200" cy="362" r="6" fill="#9CA3AF" opacity="0.6"/><circle cx="218" cy="362" r="6" fill="#9CA3AF" opacity="0.6"/><circle cx="236" cy="362" r="6" fill="#9CA3AF" opacity="0.6"/><circle cx="254" cy="362" r="6" fill="#9CA3AF" opacity="0.6"/><circle cx="272" cy="362" r="6" fill="#9CA3AF" opacity="0.6"/><circle cx="290" cy="362" r="6" fill="#9CA3AF" opacity="0.6"/><circle cx="308" cy="362" r="6" fill="#9CA3AF" opacity="0.6"/><circle cx="326" cy="362" r="6" fill="#9CA3AF" opacity="0.6"/><circle cx="344" cy="362" r="6" fill="#9CA3AF" opacity="0.6"/><circle cx="362" cy="362" r="6" fill="#9CA3AF" opacity="0.6"/><circle cx="380" cy="362" r="6" fill="#9CA3AF" opacity="0.6"/><circle cx="398" cy="362" r="6" fill="#9CA3AF" opacity="0.6"/><circle cx="416" cy="362" r="6" fill="#9CA3AF" opacity="0.6"/><circle cx="434" cy="362" r="6" fill="#9CA3AF" opacity="0.6"/><circle cx="452" cy="362" r="6" fill="#9CA3AF" opacity="0.6"/></svg>
