<?xml version="1.0" encoding="utf-8"?>
<!-- Generator: Adobe Illustrator 25.2.0, SVG Export Plug-In . SVG Version: 6.00 Build 0)  -->
<svg version="1.1" id="Layer_1" xmlns="http://www.w3.org/2000/svg" xmlns:xlink="http://www.w3.org/1999/xlink" x="0px" y="0px"
	 viewBox="200 325 200 200" style="enable-background:new 0 0 595.28 841.89;" xml:space="preserve">
<style type="text/css">
	.st0{fill-rule:evenodd;clip-rule:evenodd;}
	.st1{fill-rule:evenodd;clip-rule:evenodd;fill:#FE2C06;}
	.st2{fill-rule:evenodd;clip-rule:evenodd;fill:#8A0A1C;}
	.st3{clip-path:url(#SVGID_2_);fill:url(#SVGID_3_);}
	.st4{fill-rule:evenodd;clip-rule:evenodd;fill:#FEFEFE;}
	.st5{fill:none;stroke:#373435;stroke-width:0.216;stroke-miterlimit:2.6131;}
</style>
<path class="st0" d="M239.76,451.97l57.68,58.89l44.32-45.25l17.14,20.19l0.82,0.39c2.91,1.39,6.46,0.18,8.92-1.59
	c3-2.16,4.96-6.2,2.81-9.64l-0.15-0.23l-14.86-18.08l-1.73,1.26l-1.92-2.28l0.63-0.89c2.67-3.81,4.08-8.31,4.08-12.96
	c0-1.43-0.13-2.85-0.4-4.25l-0.17-0.88l0.78-0.57c0.39-0.28,0.77-0.57,1.15-0.87c3.97-3.07,7.52-6.66,10.95-10.3l2.63-2.79
	l-12.29-14.28l0.42-0.85c2.25-4.48,3.96-9.42,5.18-14.28l0.06-0.24c1-4.07,1.73-8.35,1.89-12.55c0.28-7.08,0.51-14.19,0.34-21.28
	l-0.09-3.95l-3.95-0.19c-4.18-0.2-8.51,0.1-12.66,0.59c-7.88,0.93-15.96,2.91-23.04,6.55l-1.31,0.67l-6.81-14.49l-22.75-9.51
	l-22.75,9.51l-6.81,14.49l-1.31-0.67c-7.08-3.64-15.16-5.62-23.04-6.55c-4.15-0.49-8.48-0.79-12.66-0.59l-3.95,0.19l-0.09,3.95
	c-0.17,7.09,0.07,14.19,0.34,21.28c0.16,4.19,0.89,8.48,1.89,12.55l0.06,0.24c1.21,4.86,2.92,9.8,5.17,14.28l0.42,0.85l-12.29,14.28
	l2.63,2.79c3.43,3.64,6.99,7.23,10.95,10.3c0.05,0.04,0.1,0.08,0.16,0.12l0.43,0.33L239.76,451.97z"/>
<polygon class="st1" points="297.44,342.94 317.03,351.12 325.71,369.59 297.44,369.59 "/>
<path class="st1" d="M297.44,378.17l30.69,0.08l21,11.3c-17.23,2.09-30.37,3.73-51.69,3.82V378.17z"/>
<path class="st2" d="M277.11,410.95c2.19,0,3.96,1.77,3.96,3.96c0,2.19-1.77,3.96-3.96,3.96c-2.19,0-3.96-1.77-3.96-3.96
	C273.15,412.73,274.93,410.95,277.11,410.95 M297.44,397.9c-14.38-0.27-29.37-1.15-45.9-3.06L228.15,422
	c10.4,11.04,15.78,14.7,31.47,20.35c14.23,5.12,31.41,11.3,37.82,11.53v-9.3h-5.45c0,0-0.76-0.22-0.95-1.78
	c-0.19-1.56,1.02-1.74,1.02-1.74h3v-4.61c0,0-4.29-2.23-5.27-5.2c-0.49-1.5-0.39-2.52-0.03-3.22c0.91-1.78,3.18-1.92,4.9-1.92h2.77
	V397.9z"/>
<path class="st2" d="M297.44,457.61v15.67l-22.67-21.83C274.76,451.46,288.06,456.87,297.44,457.61"/>
<path class="st2" d="M241.65,439.37c0,0,9.12,4.38,15.61,6.74c6.49,2.35,10.56,3.57,10.56,3.57l29.62,29.06v26.05l-53.75-54.88
	L241.65,439.37z"/>
<path class="st1" d="M317.76,410.95c-2.19,0-3.96,1.77-3.96,3.96c0,2.19,1.77,3.96,3.96,3.96c2.19,0,3.96-1.77,3.96-3.96
	C321.72,412.73,319.94,410.95,317.76,410.95 M297.44,397.9c14.38-0.27,29.37-1.15,45.9-3.06L366.72,422
	c-4.34,4.61-7.81,7.93-11.52,10.65c-3.49-7.74-11.27-13.13-20.31-13.13c-12.29,0-22.26,9.96-22.26,22.26c0,2.8,0.52,5.47,1.46,7.94
	c-7.17,2.33-13.35,4.03-16.66,4.15v-9.3h5.45c0,0,0.76-0.22,0.95-1.78c0.19-1.56-1.02-1.74-1.02-1.74h-3v-4.61
	c0,0,4.29-2.23,5.27-5.2c0.49-1.5,0.39-2.52,0.03-3.22c-0.91-1.78-3.18-1.92-4.9-1.92h-2.77V397.9z"/>
<path class="st1" d="M297.44,457.61v15.67l19.32-18.6c-0.37-0.51-0.71-1.04-1.03-1.59C311.02,454.76,303.43,457.14,297.44,457.61"/>
<path class="st1" d="M319.1,457.47l-21.67,21.26v26.05l40.05-40.89c-0.85,0.1-1.72,0.15-2.6,0.15
	C328.72,464.04,323.14,461.53,319.1,457.47"/>
<polygon class="st2" points="297.44,342.94 277.84,351.12 269.16,369.59 297.44,369.59 "/>
<path class="st2" d="M297.44,378.17l-30.69,0.08l-21,11.3c17.23,2.09,30.37,3.73,51.69,3.82V378.17z"/>
<g>
	<defs>
		<path id="SVGID_1_" d="M346.03,441.82c-0.02,6.13-5,11.09-11.14,11.09c-3.7,0-6.97-1.8-9-4.58L346.03,441.82z M334.89,430.64
			c4.77,0,8.84,3,10.43,7.22l-21.17,6.85c-0.25-0.93-0.39-1.92-0.39-2.93C323.75,435.63,328.74,430.64,334.89,430.64z"/>
	</defs>
	<clipPath id="SVGID_2_">
		<use xlink:href="#SVGID_1_"  style="overflow:visible;"/>
	</clipPath>
	<linearGradient id="SVGID_3_" gradientUnits="userSpaceOnUse" x1="337.0281" y1="446.659" x2="332.0381" y2="435.269">
		<stop  offset="0" style="stop-color:#FE2C06"/>
		<stop  offset="1" style="stop-color:#8A0A1C"/>
	</linearGradient>
	<rect x="323.75" y="430.64" class="st3" width="22.27" height="22.27"/>
</g>
<path class="st4" d="M314.09,449.72c-7.17,2.33-13.35,4.03-16.66,4.15c-3.95-0.14-12.01-2.55-20.94-5.58
	c-1.72-2.33-2.54-4.33-2.78-6.87c-0.76-8.31,5.39-17.33,12.16-22.37c3.91-2.91,7.73-4.22,11.56-4.31c3.84,0.09,7.65,1.4,11.56,4.31
	c3.12,2.32,6.1,5.48,8.34,9.03c-2.95,3.78-4.71,8.53-4.71,13.69C312.63,444.58,313.15,447.25,314.09,449.72 M271.15,402.86
	c4.04-1.01,8.4-1.47,12.06,0.83c2.52,1.58,3.78,4.34,4.73,7.05l-2.89-0.4C285.06,410.33,279.25,405.44,271.15,402.86z
	 M323.72,402.86c-4.04-1.01-8.4-1.47-12.06,0.83c-2.52,1.58-3.78,4.34-4.73,7.05l2.89-0.4
	C309.81,410.33,315.62,405.44,323.72,402.86z M356.26,431.85c-0.35,0.27-0.71,0.54-1.06,0.8c-3.4-7.56-10.91-12.87-19.68-13.12
	c-3.14-8.17-9.03-13.33-9.03-13.33s14.22,2.45,21.95,10.79C353.13,422.05,355.29,427.98,356.26,431.85z M238.61,431.85
	c5.39,4.17,11.07,6.89,20.55,10.33c-1.08-2.77-2.63-8.46-1.45-16.48c1.72-11.65,10.67-19.49,10.67-19.49s-14.22,2.45-21.95,10.79
	C241.74,422.05,239.58,427.98,238.61,431.85z M328.74,366.24l4.8,9.69c4.26-2.45,12.24-5.72,20.42-6.19c-0.31,5.7-1,11.13-3.28,16.6
	l8.07,4.41c-2.89,1.68-7.5,2.64-10.54,3.47l8.3,11.4c0,0,6.41-12.34,6.94-25.84c0.53-13.5,0.34-21.01,0.34-21.01
	S343.75,357.78,328.74,366.24z M266.13,366.24l-4.8,9.69c-4.26-2.45-12.24-5.72-20.42-6.19c0.31,5.7,1,11.13,3.28,16.6l-8.07,4.41
	c2.89,1.68,7.5,2.64,10.54,3.47l-8.3,11.4c0,0-6.41-12.34-6.94-25.84c-0.53-13.5-0.34-21.01-0.34-21.01S251.12,357.78,266.13,366.24
	z M339.15,431.49c2.84,1.18,5.09,3.49,6.17,6.38l-7.93,2.57c0.48-1.17,0.99-2.72,1.27-4.46
	C338.97,434.06,339.1,432.53,339.15,431.49z M334.89,427.48c7.9,0,14.3,6.4,14.3,14.3c0,7.9-6.4,14.3-14.3,14.3
	c-7.9,0-14.3-6.4-14.3-14.3C320.59,433.88,326.99,427.48,334.89,427.48z M334.89,423.42c10.14,0,18.36,8.22,18.36,18.36
	s-8.22,18.36-18.36,18.36c-10.14,0-18.36-8.22-18.36-18.36S324.75,423.42,334.89,423.42z M346.54,460.75l2.7,2.95
	c0,0,0.68-1.08,1.24-1.48c0.56-0.4,1.77-0.64,1.77-0.64l-2.62-3.11C349.62,458.46,348.18,460.03,346.54,460.75z M348.89,467.45
	l12.66,14.91c0,0,1.76,0.84,4.61-1.2c2.85-2.05,1.68-3.93,1.68-3.93l-12.14-14.76L348.89,467.45z M327.61,440.33
	c0,0,1.02-2.31,2.81-3.92c1.18-1.06,2.18-1.33,2.85-1.71c0.71-0.4,1.17-1.48,0.84-2.21c-0.32-0.72-1.25-1.08-2.51-0.64
	c-1.75,0.6-3.51,1.52-5.01,3.68c-1.5,2.16-1.47,4.55-1.47,4.55L327.61,440.33z M297.44,426.1h2.77c1.72,0,4,0.14,4.9,1.92
	c0.36,0.71,0.46,1.72-0.03,3.22c-0.97,2.97-5.27,5.2-5.27,5.2v4.61h3c0,0,1.21,0.19,1.02,1.74c-0.19,1.56-0.95,1.78-0.95,1.78h-5.45
	h-5.45c0,0-0.76-0.22-0.95-1.78c-0.19-1.56,1.02-1.74,1.02-1.74h3v-4.61c0,0-4.29-2.23-5.27-5.2c-0.49-1.5-0.39-2.52-0.03-3.22
	c0.91-1.78,3.18-1.92,4.9-1.92H297.44z M326.45,441.21c1.01,0,1.84,0.82,1.84,1.84s-0.82,1.84-1.84,1.84s-1.84-0.82-1.84-1.84
	S325.44,441.21,326.45,441.21z"/>
<path class="st0" d="M277.11,418.87c2.19,0,3.96-1.77,3.96-3.96c0-2.19-1.77-3.96-3.96-3.96c-2.19,0-3.96,1.77-3.96,3.96
	C273.15,417.1,274.93,418.87,277.11,418.87z M299.81,436.44c0,0,4.29-2.23,5.27-5.2c0.49-1.5,0.39-2.52,0.03-3.22
	c-0.91-1.78-3.18-1.92-4.9-1.92h-2.77h-2.77c-1.72,0-4,0.14-4.9,1.92c-0.36,0.71-0.46,1.72,0.03,3.22c0.97,2.97,5.27,5.2,5.27,5.2
	v4.61h-3c0,0-1.21,0.19-1.02,1.74c0.19,1.56,0.95,1.78,0.95,1.78h5.45h5.45c0,0,0.76-0.22,0.95-1.78c0.19-1.56-1.02-1.74-1.02-1.74
	h-3V436.44z M313.8,414.91c0,2.19,1.77,3.96,3.96,3.96c2.19,0,3.96-1.77,3.96-3.96c0-2.19-1.77-3.96-3.96-3.96
	C315.57,410.95,313.8,412.73,313.8,414.91z"/>
<path class="st5" d="M277.11,418.87c2.19,0,3.96-1.77,3.96-3.96c0-2.19-1.77-3.96-3.96-3.96c-2.19,0-3.96,1.77-3.96,3.96
	C273.15,417.1,274.93,418.87,277.11,418.87z M299.81,436.44c0,0,4.29-2.23,5.27-5.2c0.49-1.5,0.39-2.52,0.03-3.22
	c-0.91-1.78-3.18-1.92-4.9-1.92h-2.77h-2.77c-1.72,0-4,0.14-4.9,1.92c-0.36,0.71-0.46,1.72,0.03,3.22c0.97,2.97,5.27,5.2,5.27,5.2
	v4.61h-3c0,0-1.21,0.19-1.02,1.74c0.19,1.56,0.95,1.78,0.95,1.78h5.45h5.45c0,0,0.76-0.22,0.95-1.78c0.19-1.56-1.02-1.74-1.02-1.74
	h-3V436.44z M313.8,414.91c0,2.19,1.77,3.96,3.96,3.96c2.19,0,3.96-1.77,3.96-3.96c0-2.19-1.77-3.96-3.96-3.96
	C315.57,410.95,313.8,412.73,313.8,414.91z"/>
</svg>
