<?xml version="1.0" encoding="iso-8859-1"?>
<!-- Uploaded to: SVG Repo, www.svgrepo.com, Generator: SVG Repo Mixer Tools -->
<svg height="800px" width="800px" version="1.1" id="Layer_1" xmlns="http://www.w3.org/2000/svg" xmlns:xlink="http://www.w3.org/1999/xlink" 
	 viewBox="0 0 512 512" xml:space="preserve">
<path style="fill:#3B97D3;" d="M228.571,283.429c0-4.571,0.914-8.229,2.743-11.886l-61.257-30.171
	c-4.571,9.143-13.714,15.543-24.686,15.543c-10.057,0-19.2-5.486-23.771-13.714l-62.171,36.571c2.743,2.743,4.571,7.314,4.571,12.8
	C64,308.114,52.114,320,36.571,320v73.143c15.543,0,27.429,11.886,27.429,27.429c0,5.486-1.829,10.057-3.657,13.714l62.171,36.571
	c4.571-8.229,13.714-13.714,23.771-13.714s19.2,5.486,23.771,13.714l62.171-36.571c-2.743-3.657-3.657-9.143-3.657-13.714
	c0-15.543,11.886-27.429,27.429-27.429v-82.286C240.457,310.857,228.571,298.971,228.571,283.429"/>
<path style="fill:#F29C1F;" d="M338.286,91.429c0-5.486,1.829-10.057,3.657-13.714l-62.171-36.571
	C275.2,49.371,266.057,54.857,256,54.857c-10.057,0-19.2-5.486-23.771-13.714l-62.171,36.571c2.743,3.657,3.657,9.143,3.657,13.714
	c0,15.543-11.886,27.429-27.429,27.429v82.286c15.543,0,27.429,11.886,27.429,27.429c0,4.571-0.914,8.229-2.743,11.886
	l61.257,30.171c4.571-9.143,13.714-15.543,24.686-15.543s20.114,6.4,24.686,15.543l61.257-30.171
	c-3.657-3.657-4.571-7.314-4.571-11.886c0-15.543,11.886-27.429,27.429-27.429v-82.286
	C350.171,118.857,338.286,106.971,338.286,91.429"/>
<path style="fill:#3EEC93;" d="M448,292.571c0-5.486,1.829-10.057,3.657-13.714l-62.171-36.571
	C384.914,250.514,375.771,256,365.714,256c-10.971,0-20.114-6.4-24.686-15.543l-61.257,30.171c1.829,3.657,2.743,8.229,2.743,11.886
	c0,15.543-11.886,27.429-27.429,27.429v82.286c15.543,0,27.429,11.886,27.429,27.429c0,5.486-1.829,10.057-3.657,13.714
	l62.171,36.571c4.571-8.229,13.714-13.714,23.771-13.714s19.2,5.486,23.771,13.714l62.171-36.571
	c-2.743-3.657-3.657-9.143-3.657-13.714c0-15.543,11.886-27.429,27.429-27.429v-73.143C459.886,320,448,308.114,448,292.571"/>
<g>
	<path style="fill:#C67B18;" d="M283.429,27.429C283.429,11.886,271.543,0,256,0c-15.543,0-27.429,11.886-27.429,27.429
		S240.457,54.857,256,54.857C271.543,54.857,283.429,42.971,283.429,27.429"/>
	<path style="fill:#C67B18;" d="M173.714,91.429c0-15.543-11.886-27.429-27.429-27.429s-27.429,11.886-27.429,27.429
		s11.886,27.429,27.429,27.429S173.714,106.971,173.714,91.429"/>
	<path style="fill:#C67B18;" d="M393.143,91.429c0-15.543-11.886-27.429-27.429-27.429c-15.543,0-27.429,11.886-27.429,27.429
		s11.886,27.429,27.429,27.429C381.257,118.857,393.143,106.971,393.143,91.429"/>
	<path style="fill:#C67B18;" d="M393.143,228.571c0-15.543-11.886-27.429-27.429-27.429c-15.543,0-27.429,11.886-27.429,27.429
		S350.171,256,365.714,256C381.257,256,393.143,244.114,393.143,228.571"/>
</g>
<path style="fill:#2D769E;" d="M173.714,228.571c0-15.543-11.886-27.429-27.429-27.429s-27.429,11.886-27.429,27.429
	S130.743,256,146.286,256S173.714,244.114,173.714,228.571"/>
<path style="fill:#25B872;" d="M393.143,484.571c0-15.543-11.886-27.429-27.429-27.429c-15.543,0-27.429,11.886-27.429,27.429
	c0,15.543,11.886,27.429,27.429,27.429C381.257,512,393.143,500.114,393.143,484.571"/>
<g>
	<path style="fill:#2D769E;" d="M173.714,484.571c0-15.543-11.886-27.429-27.429-27.429s-27.429,11.886-27.429,27.429
		c0,15.543,11.886,27.429,27.429,27.429S173.714,500.114,173.714,484.571"/>
	<path style="fill:#2D769E;" d="M283.429,283.429C283.429,267.886,271.543,256,256,256c-15.543,0-27.429,11.886-27.429,27.429
		c0,15.543,11.886,27.429,27.429,27.429C271.543,310.857,283.429,298.971,283.429,283.429"/>
	<path style="fill:#2D769E;" d="M283.429,420.571c0-15.543-11.886-27.429-27.429-27.429c-15.543,0-27.429,11.886-27.429,27.429
		C228.571,436.114,240.457,448,256,448C271.543,448,283.429,436.114,283.429,420.571"/>
	<path style="fill:#2D769E;" d="M64,292.571c0-15.543-11.886-27.429-27.429-27.429S9.143,277.029,9.143,292.571
		S21.029,320,36.571,320S64,308.114,64,292.571"/>
</g>
<path style="fill:#25B872;" d="M502.857,292.571c0-15.543-11.886-27.429-27.429-27.429c-15.543,0-27.429,11.886-27.429,27.429
	S459.886,320,475.429,320C490.971,320,502.857,308.114,502.857,292.571"/>
<path style="fill:#2D769E;" d="M64,420.571c0-15.543-11.886-27.429-27.429-27.429S9.143,405.029,9.143,420.571
	C9.143,436.114,21.029,448,36.571,448S64,436.114,64,420.571"/>
<path style="fill:#25B872;" d="M502.857,420.571c0-15.543-11.886-27.429-27.429-27.429c-15.543,0-27.429,11.886-27.429,27.429
	C448,436.114,459.886,448,475.429,448C490.971,448,502.857,436.114,502.857,420.571"/>
</svg>