<?xml version="1.0" encoding="iso-8859-1"?>
<!-- Uploaded to: SVG Repo, www.svgrepo.com, Generator: SVG Repo Mixer Tools -->
<svg version="1.1" id="Layer_1" xmlns="http://www.w3.org/2000/svg" xmlns:xlink="http://www.w3.org/1999/xlink" 
	 viewBox="0 0 491.52 491.52" xml:space="preserve">
<rect y="473.654" style="fill:#F6C358;" width="491.52" height="17.864"/>
<path style="fill:#FCD462;" d="M467.633,379.561H23.886C10.693,379.561,0,390.256,0,403.448v70.211h491.52v-70.211
	C491.52,390.256,480.827,379.561,467.633,379.561z"/>
<path style="fill:#EBF0F3;" d="M57.761,76.339v235.15c0,23.816,19.308,43.122,43.126,43.122c23.816,0,43.124-19.306,43.124-43.122
	V76.339H57.761z"/>
<path style="fill:#E56353;" d="M66.7,150.478v161.008c0,18.851,15.334,34.185,34.184,34.185c18.851,0,34.194-15.334,34.194-34.185
	V150.478H66.7z"/>
<path style="fill:#E1E6E9;" d="M147.388,61.853H54.756c-2.135,0-3.866,1.731-3.866,3.866v6.755c0,2.135,1.731,3.866,3.866,3.866
	h92.632c2.135,0,3.866-1.731,3.866-3.866v-6.756C151.254,63.583,149.523,61.853,147.388,61.853z"/>
<g>
	<circle style="fill:#E56353;" cx="77.932" cy="126.487" r="4.285"/>
	<circle style="fill:#E56353;" cx="110.019" cy="94.19" r="6.692"/>
	<circle style="fill:#E56353;" cx="86.922" cy="100.78" r="6.584"/>
</g>
<circle style="fill:#FFFFFF;" cx="88.438" cy="275.761" r="6.584"/>
<circle style="fill:#E56353;" cx="124.703" cy="135.846" r="5.069"/>
<g>
	<circle style="fill:#FFFFFF;" cx="93.507" cy="194.419" r="5.069"/>
	<circle style="fill:#FFFFFF;" cx="111.642" cy="312.425" r="5.069"/>
	<circle style="fill:#FFFFFF;" cx="115.087" cy="236.342" r="5.069"/>
</g>
<path style="fill:#EBF0F3;" d="M350.64,76.339v235.15c0,23.816,19.308,43.122,43.125,43.122c23.816,0,43.125-19.306,43.125-43.122
	V76.339H350.64z"/>
<path style="fill:#27A2DB;" d="M359.579,219.024v92.462c0,18.851,15.333,34.185,34.184,34.185c18.851,0,34.193-15.334,34.193-34.185
	v-92.462H359.579z"/>
<path style="fill:#E1E6E9;" d="M440.266,61.853h-92.632c-2.135,0-3.866,1.731-3.866,3.866v6.755c0,2.135,1.731,3.866,3.866,3.866
	h92.632c2.135,0,3.866-1.731,3.866-3.866v-6.756C444.132,63.583,442.401,61.853,440.266,61.853z"/>
<g>
	<circle style="fill:#27A2DB;" cx="375.962" cy="194.419" r="4.639"/>
	<circle style="fill:#27A2DB;" cx="382.003" cy="139.574" r="3.973"/>
	<circle style="fill:#27A2DB;" cx="416.256" cy="104.015" r="4.388"/>
	<circle style="fill:#27A2DB;" cx="411.034" cy="182.828" r="9.196"/>
</g>
<g>
	<circle style="fill:#FFFFFF;" cx="381.184" cy="275.761" r="6.584"/>
	<circle style="fill:#FFFFFF;" cx="400.333" cy="312.425" r="5.069"/>
	<circle style="fill:#FFFFFF;" cx="407.859" cy="236.342" r="5.069"/>
</g>
<path style="fill:#3A556A;" d="M436.295,124.08H58.355c-4.328,0-7.837-3.508-7.837-7.837l0,0c0-4.328,3.508-7.837,7.837-7.837
	h377.94c4.328,0,7.837,3.509,7.837,7.837l0,0C444.132,120.572,440.623,124.08,436.295,124.08z"/>
<path style="fill:#64798A;" d="M255.474,379.561h-15.925V7.965c0-4.398,3.565-7.963,7.963-7.963l0,0
	c4.398,0,7.963,3.565,7.963,7.963V379.561z"/>
</svg>