<?xml version="1.0" encoding="iso-8859-1"?>
<!-- Uploaded to: SVG Repo, www.svgrepo.com, Generator: SVG Repo Mixer Tools -->
<svg height="800px" width="800px" version="1.1" id="Layer_1" xmlns="http://www.w3.org/2000/svg" xmlns:xlink="http://www.w3.org/1999/xlink" 
	 viewBox="0 0 511.6 511.6" xml:space="preserve">
<path style="fill:#8CC153;" d="M213.164,237.986c-3.341,1.187-6.924,1.827-10.664,1.827c-17.658,0-31.975-14.317-31.975-31.976
	c0-17.657,14.317-31.975,31.975-31.975c3.739,0,7.322,0.641,10.664,1.827V106.58h-76.44c1.179,3.342,1.827,6.925,1.827,10.664
	c0,17.658-14.317,31.975-31.975,31.975s-31.975-14.316-31.975-31.975c0-3.739,0.648-7.322,1.827-10.664H10.651v202.506h71.108
	c-1.179,3.342-1.827,6.933-1.827,10.664c0,17.658,14.317,31.975,31.975,31.975s31.975-14.316,31.975-31.975
	c0-3.731-0.648-7.322-1.827-10.664h71.108v-71.1H213.164z"/>
<path style="fill:#37BC9B;" d="M405.023,442.326c-17.674,0-31.976-14.317-31.976-31.976s14.302-31.975,31.976-31.975
	c3.715,0,7.307,0.64,10.647,1.826v-71.116H213.164V511.6h202.506v-71.101C412.329,441.67,408.737,442.326,405.023,442.326z"/>
<path style="fill:#4A89DC;" d="M223.82,378.376c-3.739,0-7.322,0.64-10.656,1.826v-71.116H10.651v71.116
	c3.341-1.187,6.924-1.826,10.664-1.826c17.658,0,31.975,14.316,31.975,31.975s-14.317,31.976-31.975,31.976
	c-3.739,0-7.322-0.656-10.664-1.827v71.1h202.514v-71.101c3.333,1.171,6.917,1.827,10.656,1.827
	c17.658,0,31.975-14.317,31.975-31.976S241.478,378.376,223.82,378.376z"/>
<path style="fill:#F6BB42;" d="M500.948,152.717c-3.341,1.179-6.933,1.826-10.679,1.826c-17.643,0-31.976-14.309-31.976-31.975
	c0-17.658,14.333-31.976,31.976-31.976c3.746,0,7.338,0.648,10.679,1.827V21.32H298.418v71.1c-3.325-1.179-6.901-1.827-10.647-1.827
	c-17.658,0-31.976,14.317-31.976,31.976c0,17.666,14.317,31.975,31.976,31.975c3.746,0,7.322-0.647,10.647-1.826v71.108h71.116
	c-1.171,3.341-1.826,6.916-1.826,10.663c0,17.658,14.316,31.975,31.975,31.975s31.975-14.316,31.975-31.975
	c0-3.747-0.656-7.322-1.826-10.663h71.116v-71.109H500.948z"/>
<path style="fill:#48CFAD;" d="M405.023,420.999c-17.674,0-31.976-14.317-31.976-31.976c0-17.657,14.302-31.975,31.976-31.975
	c3.715,0,7.307,0.655,10.647,1.827v-71.101H213.164v202.513h202.506v-71.116C412.329,420.359,408.737,420.999,405.023,420.999z"/>
<path style="fill:#5D9CEC;" d="M223.82,357.049c-3.739,0-7.322,0.655-10.656,1.827v-71.101H10.651v71.101
	c3.341-1.172,6.924-1.827,10.664-1.827c17.658,0,31.975,14.317,31.975,31.975C53.29,406.682,38.973,421,21.315,421
	c-3.739,0-7.322-0.641-10.664-1.827v71.116h202.514v-71.116c3.333,1.187,6.917,1.827,10.656,1.827
	c17.658,0,31.975-14.317,31.975-31.976C255.795,371.366,241.478,357.049,223.82,357.049z"/>
<path style="fill:#FFCE54;" d="M500.948,131.405c-3.341,1.179-6.933,1.826-10.679,1.826c-17.643,0-31.976-14.316-31.976-31.975
	s14.333-31.976,31.976-31.976c3.746,0,7.338,0.648,10.679,1.827V0H298.418v71.108c-3.325-1.179-6.901-1.827-10.647-1.827
	c-17.658,0-31.976,14.317-31.976,31.976s14.317,31.975,31.976,31.975c3.746,0,7.322-0.647,10.647-1.826v71.108h71.116
	c-1.171,3.325-1.826,6.916-1.826,10.647c0,17.658,14.316,31.976,31.975,31.976s31.975-14.317,31.975-31.976
	c0-3.731-0.656-7.322-1.826-10.647h71.116v-71.109H500.948z"/>
<path style="fill:#A0D468;" d="M213.164,216.674c-3.341,1.171-6.924,1.827-10.664,1.827c-17.658,0-31.975-14.317-31.975-31.975
	s14.317-31.983,31.975-31.983c3.739,0,7.322,0.648,10.664,1.827v-71.1h-76.44c1.179,3.333,1.827,6.916,1.827,10.655
	c0,17.658-14.317,31.975-31.975,31.975s-31.975-14.316-31.975-31.975c0-3.739,0.648-7.322,1.827-10.655H10.651v202.506h71.108
	c-1.179,3.341-1.827,6.916-1.827,10.663c0,17.658,14.317,31.975,31.975,31.975s31.975-14.316,31.975-31.975
	c0-3.747-0.648-7.322-1.827-10.663h71.108v-71.102H213.164z"/>
</svg>