<?xml version="1.0" encoding="iso-8859-1"?>
<!-- Uploaded to: SVG Repo, www.svgrepo.com, Generator: SVG Repo Mixer Tools -->
<svg height="800px" width="800px" version="1.1" id="Layer_1" xmlns="http://www.w3.org/2000/svg" xmlns:xlink="http://www.w3.org/1999/xlink" 
	 viewBox="0 0 512 512" xml:space="preserve">
<path style="fill:#546A79;" d="M494.345,509.793H17.655C7.945,509.793,0,501.848,0,492.138V315.586
	c0-9.71,7.945-17.655,17.655-17.655h476.69c9.71,0,17.655,7.945,17.655,17.655v176.552C512,501.848,504.055,509.793,494.345,509.793
	"/>
<g>
	<path style="fill:#BDC3C7;" d="M388.414,368.552c0-15.007-11.476-26.483-26.483-26.483s-26.483,11.476-26.483,26.483
		s11.476,26.483,26.483,26.483S388.414,383.559,388.414,368.552"/>
	<path style="fill:#BDC3C7;" d="M476.69,368.552c0-15.007-11.476-26.483-26.483-26.483c-15.007,0-26.483,11.476-26.483,26.483
		s11.476,26.483,26.483,26.483C465.214,395.034,476.69,383.559,476.69,368.552"/>
	<path style="fill:#BDC3C7;" d="M79.448,209.655c-5.297,0-8.828-3.531-8.828-8.828v-79.448c0-5.297,3.531-8.828,8.828-8.828
		s8.828,3.531,8.828,8.828v79.448C88.276,206.124,84.745,209.655,79.448,209.655"/>
	<path style="fill:#BDC3C7;" d="M432.552,209.655c-5.297,0-8.828-3.531-8.828-8.828v-79.448c0-5.297,3.531-8.828,8.828-8.828
		s8.828,3.531,8.828,8.828v79.448C441.379,206.124,437.848,209.655,432.552,209.655"/>
</g>
<g>
	<polygon style="fill:#ECF0F1;" points="52.966,297.931 105.931,297.931 105.931,200.828 52.966,200.828 	"/>
	<polygon style="fill:#ECF0F1;" points="406.069,297.931 459.034,297.931 459.034,200.828 406.069,200.828 	"/>
	<path style="fill:#ECF0F1;" d="M105.931,94.897c0-15.007-11.476-26.483-26.483-26.483S52.966,79.89,52.966,94.897
		s11.476,26.483,26.483,26.483S105.931,109.903,105.931,94.897"/>
	<path style="fill:#ECF0F1;" d="M459.034,94.897c0-15.007-11.476-26.483-26.483-26.483s-26.483,11.476-26.483,26.483
		s11.476,26.483,26.483,26.483S459.034,109.903,459.034,94.897"/>
</g>
<g>
	<path style="fill:#38454F;" d="M476.69,474.483H335.448c-5.297,0-8.828-3.531-8.828-8.828s3.531-8.828,8.828-8.828H476.69
		c5.297,0,8.828,3.531,8.828,8.828S481.986,474.483,476.69,474.483"/>
	<path style="fill:#38454F;" d="M476.69,439.172H335.448c-5.297,0-8.828-3.531-8.828-8.828s3.531-8.828,8.828-8.828H476.69
		c5.297,0,8.828,3.531,8.828,8.828S481.986,439.172,476.69,439.172"/>
</g>
<path style="fill:#F89231;" d="M273.655,190.234l-53.848-143.89l-29.131,57.379h-84.745c-5.297,0-8.828-3.531-8.828-8.828
	s3.531-8.828,8.828-8.828h74.152l41.49-83.862L273.655,140.8l20.303-54.731h112.11c5.297,0,8.828,3.531,8.828,8.828
	s-3.531,8.828-8.828,8.828h-99.752L273.655,190.234z"/>
<path style="fill:#D8E3EB;" d="M167.724,342.069c-67.972,0-123.586,55.614-123.586,123.586H291.31
	C291.31,397.683,235.697,342.069,167.724,342.069"/>
<g>
	<path style="fill:#38454F;" d="M361.931,368.552c-5.297,0-8.828,3.531-8.828,8.828v15.89c2.648,0.883,5.297,1.766,8.828,1.766
		s6.179-0.883,8.828-1.766v-15.89C370.759,372.083,367.228,368.552,361.931,368.552"/>
	<path style="fill:#38454F;" d="M476.69,368.552c0-3.531-0.883-6.179-1.766-8.828h-15.89c-5.297,0-8.828,3.531-8.828,8.828
		s3.531,8.828,8.828,8.828h15.89C475.807,374.731,476.69,372.083,476.69,368.552"/>
	<path style="fill:#38454F;" d="M158.897,465.655H179.2l47.669-55.614c3.531-3.531,2.648-8.828-0.883-12.359
		c-3.531-3.531-9.71-2.648-12.359,0.883l-52.966,61.793C159.779,461.241,158.897,463.89,158.897,465.655"/>
</g>
</svg>