<?xml version="1.0" standalone="no"?>
<!DOCTYPE svg PUBLIC "-//W3C//DTD SVG 20010904//EN"
 "http://www.w3.org/TR/2001/REC-SVG-20010904/DTD/svg10.dtd">
<svg version="1.0" xmlns="http://www.w3.org/2000/svg"
 width="700.000000pt" height="700.000000pt" viewBox="0 0 700.000000 700.000000"
 preserveAspectRatio="xMidYMid meet">
<metadata>
Created by potrace 1.14, written by Peter Selinger 2001-2017
</metadata>
<g transform="translate(0.000000,700.000000) scale(0.100000,-0.100000)"
fill="#000000" stroke="none">
<path d="M597 6384 c-77 -13 -152 -51 -204 -103 -44 -43 -88 -101 -77 -101 3
0 1 -6 -5 -14 -6 -7 -18 -35 -26 -62 -13 -43 -15 -320 -12 -2194 l2 -2145 33
-67 c53 -109 147 -187 262 -218 33 -9 301 -12 1046 -12 922 0 1004 -1 1017
-16 8 -10 37 -49 64 -88 274 -400 435 -626 470 -660 124 -118 298 -141 458
-61 43 21 135 110 187 181 18 24 49 63 69 87 19 24 127 159 238 301 l203 256
1033 0 c906 0 1040 2 1086 16 130 37 230 136 269 264 20 63 20 95 20 2187 0
1909 -2 2127 -16 2176 -9 30 -22 61 -30 70 -8 8 -14 19 -14 23 0 17 -55 78
-99 110 -25 19 -75 44 -111 57 l-65 22 -2868 1 c-1966 1 -2888 -2 -2930 -10z
m3951 -954 c57 -26 379 -345 411 -408 30 -59 31 -133 3 -196 -26 -58 -220
-256 -251 -256 -25 0 -599 573 -607 607 -5 19 0 32 23 56 17 18 57 61 89 96
74 79 106 102 163 117 58 14 111 9 169 -16z m-351 -712 c156 -156 290 -294
297 -308 8 -15 11 -33 6 -45 -12 -33 -1398 -1412 -1425 -1419 -22 -6 -58 27
-315 285 -160 160 -295 299 -300 309 -13 24 -14 23 270 310 866 876 1142 1150
1161 1150 14 0 116 -94 306 -282z m-1617 -1658 c322 -321 325 -326 270 -381
-16 -16 -37 -29 -47 -30 -22 -1 -12 1 -198 -44 -410 -99 -479 -115 -504 -115
-16 0 -40 11 -55 25 -25 23 -27 31 -23 73 2 26 8 61 11 77 19 82 79 327 91
375 8 30 26 101 39 158 27 115 51 152 97 152 24 0 77 -48 319 -290z"/>
</g>
</svg>
