<?xml version="1.0" encoding="utf-8" standalone="no"?>
<!DOCTYPE svg PUBLIC "-//W3C//DTD SVG 1.1//EN"
  "http://www.w3.org/Graphics/SVG/1.1/DTD/svg11.dtd">
<svg xmlns:xlink="http://www.w3.org/1999/xlink" width="712.674687pt" height="576.782813pt" viewBox="0 0 712.674687 576.782813" xmlns="http://www.w3.org/2000/svg" version="1.1">
 <metadata>
  <rdf:RDF xmlns:dc="http://purl.org/dc/elements/1.1/" xmlns:cc="http://creativecommons.org/ns#" xmlns:rdf="http://www.w3.org/1999/02/22-rdf-syntax-ns#">
   <cc:Work>
    <dc:type rdf:resource="http://purl.org/dc/dcmitype/StillImage"/>
    <dc:date>2025-11-16T01:55:50.397719</dc:date>
    <dc:format>image/svg+xml</dc:format>
    <dc:creator>
     <cc:Agent>
      <dc:title>Matplotlib v3.10.7, https://matplotlib.org/</dc:title>
     </cc:Agent>
    </dc:creator>
   </cc:Work>
  </rdf:RDF>
 </metadata>
 <defs>
  <style type="text/css">*{stroke-linejoin: round; stroke-linecap: butt}</style>
 </defs>
 <g id="figure_1">
  <g id="patch_1">
   <path d="M -0 576.782813 
L 712.674687 576.782813 
L 712.674687 0 
L -0 0 
z
" style="fill: #ffffff"/>
  </g>
  <g id="axes_1">
   <g id="patch_2">
    <path d="M 36.144688 282.42 
L 705.474687 282.42 
L 705.474687 53.88 
L 36.144688 53.88 
z
" style="fill: #eaeaf2"/>
   </g>
   <g id="matplotlib.axis_1">
    <g id="xtick_1">
     <g id="line2d_1">
      <path d="M 66.568778 282.42 
L 66.568778 53.88 
" clip-path="url(#p6ba91575b1)" style="fill: none; stroke-dasharray: 0.8,1.32; stroke-dashoffset: 0; stroke: #ffffff; stroke-opacity: 0.3; stroke-width: 0.8"/>
     </g>
     <g id="line2d_2"/>
    </g>
    <g id="xtick_2">
     <g id="line2d_3">
      <path d="M 218.689233 282.42 
L 218.689233 53.88 
" clip-path="url(#p6ba91575b1)" style="fill: none; stroke-dasharray: 0.8,1.32; stroke-dashoffset: 0; stroke: #ffffff; stroke-opacity: 0.3; stroke-width: 0.8"/>
     </g>
     <g id="line2d_4"/>
    </g>
    <g id="xtick_3">
     <g id="line2d_5">
      <path d="M 370.809687 282.42 
L 370.809687 53.88 
" clip-path="url(#p6ba91575b1)" style="fill: none; stroke-dasharray: 0.8,1.32; stroke-dashoffset: 0; stroke: #ffffff; stroke-opacity: 0.3; stroke-width: 0.8"/>
     </g>
     <g id="line2d_6"/>
    </g>
    <g id="xtick_4">
     <g id="line2d_7">
      <path d="M 522.930142 282.42 
L 522.930142 53.88 
" clip-path="url(#p6ba91575b1)" style="fill: none; stroke-dasharray: 0.8,1.32; stroke-dashoffset: 0; stroke: #ffffff; stroke-opacity: 0.3; stroke-width: 0.8"/>
     </g>
     <g id="line2d_8"/>
    </g>
    <g id="xtick_5">
     <g id="line2d_9">
      <path d="M 675.050597 282.42 
L 675.050597 53.88 
" clip-path="url(#p6ba91575b1)" style="fill: none; stroke-dasharray: 0.8,1.32; stroke-dashoffset: 0; stroke: #ffffff; stroke-opacity: 0.3; stroke-width: 0.8"/>
     </g>
     <g id="line2d_10"/>
    </g>
   </g>
   <g id="matplotlib.axis_2">
    <g id="ytick_1">
     <g id="line2d_11">
      <path d="M 36.144688 282.42 
L 705.474687 282.42 
" clip-path="url(#p6ba91575b1)" style="fill: none; stroke-dasharray: 0.8,1.32; stroke-dashoffset: 0; stroke: #ffffff; stroke-opacity: 0.3; stroke-width: 0.8"/>
     </g>
     <g id="line2d_12"/>
     <g id="text_1">
      <!-- 0 -->
      <g style="fill: #262626" transform="translate(27.08375 285.998906) scale(0.1 -0.1)">
       <defs>
        <path id="ArialMT-30" d="M 266 2259 
Q 266 3072 433 3567 
Q 600 4063 929 4331 
Q 1259 4600 1759 4600 
Q 2128 4600 2406 4451 
Q 2684 4303 2865 4023 
Q 3047 3744 3150 3342 
Q 3253 2941 3253 2259 
Q 3253 1453 3087 958 
Q 2922 463 2592 192 
Q 2263 -78 1759 -78 
Q 1097 -78 719 397 
Q 266 969 266 2259 
z
M 844 2259 
Q 844 1131 1108 757 
Q 1372 384 1759 384 
Q 2147 384 2411 759 
Q 2675 1134 2675 2259 
Q 2675 3391 2411 3762 
Q 2147 4134 1753 4134 
Q 1366 4134 1134 3806 
Q 844 3388 844 2259 
z
" transform="scale(0.015625)"/>
       </defs>
       <use xlink:href="#ArialMT-30"/>
      </g>
     </g>
    </g>
    <g id="ytick_2">
     <g id="line2d_13">
      <path d="M 36.144688 236.712 
L 705.474687 236.712 
" clip-path="url(#p6ba91575b1)" style="fill: none; stroke-dasharray: 0.8,1.32; stroke-dashoffset: 0; stroke: #ffffff; stroke-opacity: 0.3; stroke-width: 0.8"/>
     </g>
     <g id="line2d_14"/>
     <g id="text_2">
      <!-- 5 -->
      <g style="fill: #262626" transform="translate(27.08375 240.290906) scale(0.1 -0.1)">
       <defs>
        <path id="ArialMT-35" d="M 266 1200 
L 856 1250 
Q 922 819 1161 601 
Q 1400 384 1738 384 
Q 2144 384 2425 690 
Q 2706 997 2706 1503 
Q 2706 1984 2436 2262 
Q 2166 2541 1728 2541 
Q 1456 2541 1237 2417 
Q 1019 2294 894 2097 
L 366 2166 
L 809 4519 
L 3088 4519 
L 3088 3981 
L 1259 3981 
L 1013 2750 
Q 1425 3038 1878 3038 
Q 2478 3038 2890 2622 
Q 3303 2206 3303 1553 
Q 3303 931 2941 478 
Q 2500 -78 1738 -78 
Q 1113 -78 717 272 
Q 322 622 266 1200 
z
" transform="scale(0.015625)"/>
       </defs>
       <use xlink:href="#ArialMT-35"/>
      </g>
     </g>
    </g>
    <g id="ytick_3">
     <g id="line2d_15">
      <path d="M 36.144688 191.004 
L 705.474687 191.004 
" clip-path="url(#p6ba91575b1)" style="fill: none; stroke-dasharray: 0.8,1.32; stroke-dashoffset: 0; stroke: #ffffff; stroke-opacity: 0.3; stroke-width: 0.8"/>
     </g>
     <g id="line2d_16"/>
     <g id="text_3">
      <!-- 10 -->
      <g style="fill: #262626" transform="translate(21.522813 194.582906) scale(0.1 -0.1)">
       <defs>
        <path id="ArialMT-31" d="M 2384 0 
L 1822 0 
L 1822 3584 
Q 1619 3391 1289 3197 
Q 959 3003 697 2906 
L 697 3450 
Q 1169 3672 1522 3987 
Q 1875 4303 2022 4600 
L 2384 4600 
L 2384 0 
z
" transform="scale(0.015625)"/>
       </defs>
       <use xlink:href="#ArialMT-31"/>
       <use xlink:href="#ArialMT-30" transform="translate(55.615234 0)"/>
      </g>
     </g>
    </g>
    <g id="ytick_4">
     <g id="line2d_17">
      <path d="M 36.144688 145.296 
L 705.474687 145.296 
" clip-path="url(#p6ba91575b1)" style="fill: none; stroke-dasharray: 0.8,1.32; stroke-dashoffset: 0; stroke: #ffffff; stroke-opacity: 0.3; stroke-width: 0.8"/>
     </g>
     <g id="line2d_18"/>
     <g id="text_4">
      <!-- 15 -->
      <g style="fill: #262626" transform="translate(21.522813 148.874906) scale(0.1 -0.1)">
       <use xlink:href="#ArialMT-31"/>
       <use xlink:href="#ArialMT-35" transform="translate(55.615234 0)"/>
      </g>
     </g>
    </g>
    <g id="ytick_5">
     <g id="line2d_19">
      <path d="M 36.144688 99.588 
L 705.474687 99.588 
" clip-path="url(#p6ba91575b1)" style="fill: none; stroke-dasharray: 0.8,1.32; stroke-dashoffset: 0; stroke: #ffffff; stroke-opacity: 0.3; stroke-width: 0.8"/>
     </g>
     <g id="line2d_20"/>
     <g id="text_5">
      <!-- 20 -->
      <g style="fill: #262626" transform="translate(21.522813 103.166906) scale(0.1 -0.1)">
       <defs>
        <path id="ArialMT-32" d="M 3222 541 
L 3222 0 
L 194 0 
Q 188 203 259 391 
Q 375 700 629 1000 
Q 884 1300 1366 1694 
Q 2113 2306 2375 2664 
Q 2638 3022 2638 3341 
Q 2638 3675 2398 3904 
Q 2159 4134 1775 4134 
Q 1369 4134 1125 3890 
Q 881 3647 878 3216 
L 300 3275 
Q 359 3922 746 4261 
Q 1134 4600 1788 4600 
Q 2447 4600 2831 4234 
Q 3216 3869 3216 3328 
Q 3216 3053 3103 2787 
Q 2991 2522 2730 2228 
Q 2469 1934 1863 1422 
Q 1356 997 1212 845 
Q 1069 694 975 541 
L 3222 541 
z
" transform="scale(0.015625)"/>
       </defs>
       <use xlink:href="#ArialMT-32"/>
       <use xlink:href="#ArialMT-30" transform="translate(55.615234 0)"/>
      </g>
     </g>
    </g>
    <g id="ytick_6">
     <g id="line2d_21">
      <path d="M 36.144688 53.88 
L 705.474687 53.88 
" clip-path="url(#p6ba91575b1)" style="fill: none; stroke-dasharray: 0.8,1.32; stroke-dashoffset: 0; stroke: #ffffff; stroke-opacity: 0.3; stroke-width: 0.8"/>
     </g>
     <g id="line2d_22"/>
     <g id="text_6">
      <!-- 25 -->
      <g style="fill: #262626" transform="translate(21.522813 57.458906) scale(0.1 -0.1)">
       <use xlink:href="#ArialMT-32"/>
       <use xlink:href="#ArialMT-35" transform="translate(55.615234 0)"/>
      </g>
     </g>
    </g>
    <g id="text_7">
     <!-- CCP Echo Rate (%) -->
     <g style="fill: #262626" transform="translate(15.207656 218.169922) rotate(-90) scale(0.11 -0.11)">
      <defs>
       <path id="Arial-BoldMT-43" d="M 3397 1684 
L 4294 1400 
Q 4088 650 3608 286 
Q 3128 -78 2391 -78 
Q 1478 -78 890 545 
Q 303 1169 303 2250 
Q 303 3394 893 4026 
Q 1484 4659 2447 4659 
Q 3288 4659 3813 4163 
Q 4125 3869 4281 3319 
L 3366 3100 
Q 3284 3456 3026 3662 
Q 2769 3869 2400 3869 
Q 1891 3869 1573 3503 
Q 1256 3138 1256 2319 
Q 1256 1450 1568 1081 
Q 1881 713 2381 713 
Q 2750 713 3015 947 
Q 3281 1181 3397 1684 
z
" transform="scale(0.015625)"/>
       <path id="Arial-BoldMT-50" d="M 466 0 
L 466 4581 
L 1950 4581 
Q 2794 4581 3050 4513 
Q 3444 4409 3709 4064 
Q 3975 3719 3975 3172 
Q 3975 2750 3822 2462 
Q 3669 2175 3433 2011 
Q 3197 1847 2953 1794 
Q 2622 1728 1994 1728 
L 1391 1728 
L 1391 0 
L 466 0 
z
M 1391 3806 
L 1391 2506 
L 1897 2506 
Q 2444 2506 2628 2578 
Q 2813 2650 2917 2803 
Q 3022 2956 3022 3159 
Q 3022 3409 2875 3571 
Q 2728 3734 2503 3775 
Q 2338 3806 1838 3806 
L 1391 3806 
z
" transform="scale(0.015625)"/>
       <path id="Arial-BoldMT-20" transform="scale(0.015625)"/>
       <path id="Arial-BoldMT-45" d="M 466 0 
L 466 4581 
L 3863 4581 
L 3863 3806 
L 1391 3806 
L 1391 2791 
L 3691 2791 
L 3691 2019 
L 1391 2019 
L 1391 772 
L 3950 772 
L 3950 0 
L 466 0 
z
" transform="scale(0.015625)"/>
       <path id="Arial-BoldMT-63" d="M 3353 2338 
L 2488 2181 
Q 2444 2441 2289 2572 
Q 2134 2703 1888 2703 
Q 1559 2703 1364 2476 
Q 1169 2250 1169 1719 
Q 1169 1128 1367 884 
Q 1566 641 1900 641 
Q 2150 641 2309 783 
Q 2469 925 2534 1272 
L 3397 1125 
Q 3263 531 2881 228 
Q 2500 -75 1859 -75 
Q 1131 -75 698 384 
Q 266 844 266 1656 
Q 266 2478 700 2936 
Q 1134 3394 1875 3394 
Q 2481 3394 2839 3133 
Q 3197 2872 3353 2338 
z
" transform="scale(0.015625)"/>
       <path id="Arial-BoldMT-68" d="M 1334 4581 
L 1334 2897 
Q 1759 3394 2350 3394 
Q 2653 3394 2897 3281 
Q 3141 3169 3264 2994 
Q 3388 2819 3433 2606 
Q 3478 2394 3478 1947 
L 3478 0 
L 2600 0 
L 2600 1753 
Q 2600 2275 2550 2415 
Q 2500 2556 2373 2639 
Q 2247 2722 2056 2722 
Q 1838 2722 1666 2615 
Q 1494 2509 1414 2295 
Q 1334 2081 1334 1663 
L 1334 0 
L 456 0 
L 456 4581 
L 1334 4581 
z
" transform="scale(0.015625)"/>
       <path id="Arial-BoldMT-6f" d="M 256 1706 
Q 256 2144 472 2553 
Q 688 2963 1083 3178 
Q 1478 3394 1966 3394 
Q 2719 3394 3200 2905 
Q 3681 2416 3681 1669 
Q 3681 916 3195 420 
Q 2709 -75 1972 -75 
Q 1516 -75 1102 131 
Q 688 338 472 736 
Q 256 1134 256 1706 
z
M 1156 1659 
Q 1156 1166 1390 903 
Q 1625 641 1969 641 
Q 2313 641 2545 903 
Q 2778 1166 2778 1666 
Q 2778 2153 2545 2415 
Q 2313 2678 1969 2678 
Q 1625 2678 1390 2415 
Q 1156 2153 1156 1659 
z
" transform="scale(0.015625)"/>
       <path id="Arial-BoldMT-52" d="M 469 0 
L 469 4581 
L 2416 4581 
Q 3150 4581 3483 4457 
Q 3816 4334 4016 4018 
Q 4216 3703 4216 3297 
Q 4216 2781 3912 2445 
Q 3609 2109 3006 2022 
Q 3306 1847 3501 1637 
Q 3697 1428 4028 894 
L 4588 0 
L 3481 0 
L 2813 997 
Q 2456 1531 2325 1670 
Q 2194 1809 2047 1861 
Q 1900 1913 1581 1913 
L 1394 1913 
L 1394 0 
L 469 0 
z
M 1394 2644 
L 2078 2644 
Q 2744 2644 2909 2700 
Q 3075 2756 3169 2893 
Q 3263 3031 3263 3238 
Q 3263 3469 3139 3611 
Q 3016 3753 2791 3791 
Q 2678 3806 2116 3806 
L 1394 3806 
L 1394 2644 
z
" transform="scale(0.015625)"/>
       <path id="Arial-BoldMT-61" d="M 1116 2306 
L 319 2450 
Q 453 2931 781 3162 
Q 1109 3394 1756 3394 
Q 2344 3394 2631 3255 
Q 2919 3116 3036 2902 
Q 3153 2688 3153 2116 
L 3144 1091 
Q 3144 653 3186 445 
Q 3228 238 3344 0 
L 2475 0 
Q 2441 88 2391 259 
Q 2369 338 2359 363 
Q 2134 144 1878 34 
Q 1622 -75 1331 -75 
Q 819 -75 523 203 
Q 228 481 228 906 
Q 228 1188 362 1408 
Q 497 1628 739 1745 
Q 981 1863 1438 1950 
Q 2053 2066 2291 2166 
L 2291 2253 
Q 2291 2506 2166 2614 
Q 2041 2722 1694 2722 
Q 1459 2722 1328 2630 
Q 1197 2538 1116 2306 
z
M 2291 1594 
Q 2122 1538 1756 1459 
Q 1391 1381 1278 1306 
Q 1106 1184 1106 997 
Q 1106 813 1243 678 
Q 1381 544 1594 544 
Q 1831 544 2047 700 
Q 2206 819 2256 991 
Q 2291 1103 2291 1419 
L 2291 1594 
z
" transform="scale(0.015625)"/>
       <path id="Arial-BoldMT-74" d="M 1981 3319 
L 1981 2619 
L 1381 2619 
L 1381 1281 
Q 1381 875 1398 808 
Q 1416 741 1477 697 
Q 1538 653 1625 653 
Q 1747 653 1978 738 
L 2053 56 
Q 1747 -75 1359 -75 
Q 1122 -75 931 4 
Q 741 84 652 211 
Q 563 338 528 553 
Q 500 706 500 1172 
L 500 2619 
L 97 2619 
L 97 3319 
L 500 3319 
L 500 3978 
L 1381 4491 
L 1381 3319 
L 1981 3319 
z
" transform="scale(0.015625)"/>
       <path id="Arial-BoldMT-65" d="M 2381 1056 
L 3256 909 
Q 3088 428 2723 176 
Q 2359 -75 1813 -75 
Q 947 -75 531 491 
Q 203 944 203 1634 
Q 203 2459 634 2926 
Q 1066 3394 1725 3394 
Q 2466 3394 2894 2905 
Q 3322 2416 3303 1406 
L 1103 1406 
Q 1113 1016 1316 798 
Q 1519 581 1822 581 
Q 2028 581 2168 693 
Q 2309 806 2381 1056 
z
M 2431 1944 
Q 2422 2325 2234 2523 
Q 2047 2722 1778 2722 
Q 1491 2722 1303 2513 
Q 1116 2303 1119 1944 
L 2431 1944 
z
" transform="scale(0.015625)"/>
       <path id="Arial-BoldMT-28" d="M 1916 -1347 
L 1313 -1347 
Q 834 -625 584 153 
Q 334 931 334 1659 
Q 334 2563 644 3369 
Q 913 4069 1325 4659 
L 1925 4659 
Q 1497 3713 1336 3048 
Q 1175 2384 1175 1641 
Q 1175 1128 1270 590 
Q 1366 53 1531 -431 
Q 1641 -750 1916 -1347 
z
" transform="scale(0.015625)"/>
       <path id="Arial-BoldMT-25" d="M 278 3450 
Q 278 4066 548 4362 
Q 819 4659 1281 4659 
Q 1759 4659 2029 4364 
Q 2300 4069 2300 3450 
Q 2300 2834 2029 2537 
Q 1759 2241 1297 2241 
Q 819 2241 548 2536 
Q 278 2831 278 3450 
z
M 963 3456 
Q 963 3009 1066 2856 
Q 1144 2744 1281 2744 
Q 1422 2744 1500 2856 
Q 1600 3009 1600 3456 
Q 1600 3903 1500 4053 
Q 1422 4169 1281 4169 
Q 1144 4169 1066 4056 
Q 963 3903 963 3456 
z
M 1950 -175 
L 1300 -175 
L 3741 4659 
L 4372 4659 
L 1950 -175 
z
M 3369 1028 
Q 3369 1644 3639 1941 
Q 3909 2238 4378 2238 
Q 4850 2238 5120 1941 
Q 5391 1644 5391 1028 
Q 5391 409 5120 112 
Q 4850 -184 4388 -184 
Q 3909 -184 3639 112 
Q 3369 409 3369 1028 
z
M 4053 1031 
Q 4053 584 4156 434 
Q 4234 319 4372 319 
Q 4513 319 4588 431 
Q 4691 584 4691 1031 
Q 4691 1478 4591 1631 
Q 4513 1744 4372 1744 
Q 4231 1744 4156 1631 
Q 4053 1478 4053 1031 
z
" transform="scale(0.015625)"/>
       <path id="Arial-BoldMT-29" d="M 216 -1347 
Q 475 -791 581 -494 
Q 688 -197 778 190 
Q 869 578 912 926 
Q 956 1275 956 1641 
Q 956 2384 797 3048 
Q 638 3713 209 4659 
L 806 4659 
Q 1278 3988 1539 3234 
Q 1800 2481 1800 1706 
Q 1800 1053 1594 306 
Q 1359 -531 822 -1347 
L 216 -1347 
z
" transform="scale(0.015625)"/>
      </defs>
      <use xlink:href="#Arial-BoldMT-43"/>
      <use xlink:href="#Arial-BoldMT-43" transform="translate(72.216797 0)"/>
      <use xlink:href="#Arial-BoldMT-50" transform="translate(144.433594 0)"/>
      <use xlink:href="#Arial-BoldMT-20" transform="translate(209.382812 0)"/>
      <use xlink:href="#Arial-BoldMT-45" transform="translate(237.166016 0)"/>
      <use xlink:href="#Arial-BoldMT-63" transform="translate(303.865234 0)"/>
      <use xlink:href="#Arial-BoldMT-68" transform="translate(359.480469 0)"/>
      <use xlink:href="#Arial-BoldMT-6f" transform="translate(420.564453 0)"/>
      <use xlink:href="#Arial-BoldMT-20" transform="translate(481.648438 0)"/>
      <use xlink:href="#Arial-BoldMT-52" transform="translate(509.431641 0)"/>
      <use xlink:href="#Arial-BoldMT-61" transform="translate(581.648438 0)"/>
      <use xlink:href="#Arial-BoldMT-74" transform="translate(637.263672 0)"/>
      <use xlink:href="#Arial-BoldMT-65" transform="translate(670.564453 0)"/>
      <use xlink:href="#Arial-BoldMT-20" transform="translate(726.179688 0)"/>
      <use xlink:href="#Arial-BoldMT-28" transform="translate(753.962891 0)"/>
      <use xlink:href="#Arial-BoldMT-25" transform="translate(787.263672 0)"/>
      <use xlink:href="#Arial-BoldMT-29" transform="translate(876.179688 0)"/>
     </g>
    </g>
   </g>
   <g id="FillBetweenPolyCollection_1">
    <defs>
     <path id="m8ca912cca2" d="M 66.568778 -348.115421 
L 66.568778 -294.362813 
L 218.689233 -294.362813 
L 370.809687 -294.362813 
L 522.930142 -294.362813 
L 675.050597 -294.362813 
L 675.050597 -349.486661 
L 675.050597 -349.486661 
L 522.930142 -365.575876 
L 370.809687 -364.935965 
L 218.689233 -467.778964 
L 66.568778 -348.115421 
z
" style="stroke: #0173b2; stroke-opacity: 0.2"/>
    </defs>
    <g clip-path="url(#p6ba91575b1)">
     <use xlink:href="#m8ca912cca2" x="0" y="576.782813" style="fill: #0173b2; fill-opacity: 0.2; stroke: #0173b2; stroke-opacity: 0.2"/>
    </g>
   </g>
   <g id="patch_3">
    <path d="M 36.144688 282.42 
L 36.144688 53.88 
" style="fill: none"/>
   </g>
   <g id="patch_4">
    <path d="M 705.474687 282.42 
L 705.474687 53.88 
" style="fill: none"/>
   </g>
   <g id="patch_5">
    <path d="M 36.144688 282.42 
L 705.474687 282.42 
" style="fill: none"/>
   </g>
   <g id="patch_6">
    <path d="M 36.144688 53.88 
L 705.474687 53.88 
" style="fill: none"/>
   </g>
   <g id="line2d_23">
    <path d="M 66.568778 228.667392 
L 218.689233 109.003848 
L 370.809687 211.846848 
L 522.930142 211.206936 
L 675.050597 227.296152 
" clip-path="url(#p6ba91575b1)" style="fill: none; stroke: #0173b2; stroke-width: 3; stroke-linecap: round"/>
    <defs>
     <path id="m280920db27" d="M 0 5 
C 1.326016 5 2.597899 4.473168 3.535534 3.535534 
C 4.473168 2.597899 5 1.326016 5 0 
C 5 -1.326016 4.473168 -2.597899 3.535534 -3.535534 
C 2.597899 -4.473168 1.326016 -5 0 -5 
C -1.326016 -5 -2.597899 -4.473168 -3.535534 -3.535534 
C -4.473168 -2.597899 -5 -1.326016 -5 0 
C -5 1.326016 -4.473168 2.597899 -3.535534 3.535534 
C -2.597899 4.473168 -1.326016 5 0 5 
z
" style="stroke: #0173b2"/>
    </defs>
    <g clip-path="url(#p6ba91575b1)">
     <use xlink:href="#m280920db27" x="66.568778" y="228.667392" style="fill: #0173b2; stroke: #0173b2"/>
     <use xlink:href="#m280920db27" x="218.689233" y="109.003848" style="fill: #0173b2; stroke: #0173b2"/>
     <use xlink:href="#m280920db27" x="370.809687" y="211.846848" style="fill: #0173b2; stroke: #0173b2"/>
     <use xlink:href="#m280920db27" x="522.930142" y="211.206936" style="fill: #0173b2; stroke: #0173b2"/>
     <use xlink:href="#m280920db27" x="675.050597" y="227.296152" style="fill: #0173b2; stroke: #0173b2"/>
    </g>
   </g>
   <g id="patch_7">
    <path d="M 288.571506 86.3849 
Q 254.583659 97.385821 222.723217 107.69816 
" style="fill: none; stroke: #ca5140; stroke-width: 2; stroke-linecap: round"/>
    <path d="M 228.029023 108.503403 
L 222.723217 107.69816 
L 226.550896 103.936661 
" style="fill: none; stroke: #ca5140; stroke-width: 2; stroke-linecap: round"/>
   </g>
   <g id="text_8">
    <g id="patch_8">
     <path d="M 294.74946 87.547173 
L 370.471335 87.547173 
Q 374.071335 87.547173 374.071335 83.947173 
L 374.071335 60.314298 
Q 374.071335 56.714298 370.471335 56.714298 
L 294.74946 56.714298 
Q 291.14946 56.714298 291.14946 60.314298 
L 291.14946 83.947173 
Q 291.14946 87.547173 294.74946 87.547173 
z
" style="fill: #ffffff; stroke: #ca5140; stroke-width: 2; stroke-linejoin: miter"/>
    </g>
    <!-- 19.0% -->
    <g style="fill: #ca5140" transform="translate(294.74946 68.903673) scale(0.12 -0.12)">
     <defs>
      <path id="Arial-BoldMT-31" d="M 2519 0 
L 1641 0 
L 1641 3309 
Q 1159 2859 506 2644 
L 506 3441 
Q 850 3553 1253 3867 
Q 1656 4181 1806 4600 
L 2519 4600 
L 2519 0 
z
" transform="scale(0.015625)"/>
      <path id="Arial-BoldMT-39" d="M 291 1059 
L 1141 1153 
Q 1172 894 1303 769 
Q 1434 644 1650 644 
Q 1922 644 2112 894 
Q 2303 1144 2356 1931 
Q 2025 1547 1528 1547 
Q 988 1547 595 1964 
Q 203 2381 203 3050 
Q 203 3747 617 4173 
Q 1031 4600 1672 4600 
Q 2369 4600 2816 4061 
Q 3263 3522 3263 2288 
Q 3263 1031 2797 475 
Q 2331 -81 1584 -81 
Q 1047 -81 715 205 
Q 384 491 291 1059 
z
M 2278 2978 
Q 2278 3403 2083 3637 
Q 1888 3872 1631 3872 
Q 1388 3872 1227 3680 
Q 1066 3488 1066 3050 
Q 1066 2606 1241 2398 
Q 1416 2191 1678 2191 
Q 1931 2191 2104 2391 
Q 2278 2591 2278 2978 
z
" transform="scale(0.015625)"/>
      <path id="Arial-BoldMT-2e" d="M 459 0 
L 459 878 
L 1338 878 
L 1338 0 
L 459 0 
z
" transform="scale(0.015625)"/>
      <path id="Arial-BoldMT-30" d="M 1756 4600 
Q 2422 4600 2797 4125 
Q 3244 3563 3244 2259 
Q 3244 959 2794 391 
Q 2422 -78 1756 -78 
Q 1088 -78 678 436 
Q 269 950 269 2269 
Q 269 3563 719 4131 
Q 1091 4600 1756 4600 
z
M 1756 3872 
Q 1597 3872 1472 3770 
Q 1347 3669 1278 3406 
Q 1188 3066 1188 2259 
Q 1188 1453 1269 1151 
Q 1350 850 1473 750 
Q 1597 650 1756 650 
Q 1916 650 2041 751 
Q 2166 853 2234 1116 
Q 2325 1453 2325 2259 
Q 2325 3066 2244 3367 
Q 2163 3669 2039 3770 
Q 1916 3872 1756 3872 
z
" transform="scale(0.015625)"/>
     </defs>
     <use xlink:href="#Arial-BoldMT-31"/>
     <use xlink:href="#Arial-BoldMT-39" transform="translate(55.615234 0)"/>
     <use xlink:href="#Arial-BoldMT-2e" transform="translate(111.230469 0)"/>
     <use xlink:href="#Arial-BoldMT-30" transform="translate(139.013672 0)"/>
     <use xlink:href="#Arial-BoldMT-25" transform="translate(194.628906 0)"/>
    </g>
    <!-- 4.3× increase -->
    <g style="fill: #ca5140" transform="translate(294.74946 81.579048) scale(0.12 -0.12)">
     <defs>
      <path id="Arial-BoldMT-34" d="M 1994 0 
L 1994 922 
L 119 922 
L 119 1691 
L 2106 4600 
L 2844 4600 
L 2844 1694 
L 3413 1694 
L 3413 922 
L 2844 922 
L 2844 0 
L 1994 0 
z
M 1994 1694 
L 1994 3259 
L 941 1694 
L 1994 1694 
z
" transform="scale(0.015625)"/>
      <path id="Arial-BoldMT-33" d="M 241 1216 
L 1091 1319 
Q 1131 994 1309 822 
Q 1488 650 1741 650 
Q 2013 650 2198 856 
Q 2384 1063 2384 1413 
Q 2384 1744 2206 1937 
Q 2028 2131 1772 2131 
Q 1603 2131 1369 2066 
L 1466 2781 
Q 1822 2772 2009 2936 
Q 2197 3100 2197 3372 
Q 2197 3603 2059 3740 
Q 1922 3878 1694 3878 
Q 1469 3878 1309 3722 
Q 1150 3566 1116 3266 
L 306 3403 
Q 391 3819 561 4067 
Q 731 4316 1036 4458 
Q 1341 4600 1719 4600 
Q 2366 4600 2756 4188 
Q 3078 3850 3078 3425 
Q 3078 2822 2419 2463 
Q 2813 2378 3048 2084 
Q 3284 1791 3284 1375 
Q 3284 772 2843 347 
Q 2403 -78 1747 -78 
Q 1125 -78 715 280 
Q 306 638 241 1216 
z
" transform="scale(0.015625)"/>
      <path id="Arial-BoldMT-d7" d="M 347 1313 
L 1291 2256 
L 341 3203 
L 922 3784 
L 1872 2838 
L 2816 3781 
L 3381 3213 
L 2438 2269 
L 3391 1316 
L 2809 734 
L 1856 1688 
L 913 744 
L 347 1313 
z
" transform="scale(0.015625)"/>
      <path id="Arial-BoldMT-69" d="M 459 3769 
L 459 4581 
L 1338 4581 
L 1338 3769 
L 459 3769 
z
M 459 0 
L 459 3319 
L 1338 3319 
L 1338 0 
L 459 0 
z
" transform="scale(0.015625)"/>
      <path id="Arial-BoldMT-6e" d="M 3478 0 
L 2600 0 
L 2600 1694 
Q 2600 2231 2544 2389 
Q 2488 2547 2361 2634 
Q 2234 2722 2056 2722 
Q 1828 2722 1647 2597 
Q 1466 2472 1398 2265 
Q 1331 2059 1331 1503 
L 1331 0 
L 453 0 
L 453 3319 
L 1269 3319 
L 1269 2831 
Q 1703 3394 2363 3394 
Q 2653 3394 2893 3289 
Q 3134 3184 3257 3021 
Q 3381 2859 3429 2653 
Q 3478 2447 3478 2063 
L 3478 0 
z
" transform="scale(0.015625)"/>
      <path id="Arial-BoldMT-72" d="M 1300 0 
L 422 0 
L 422 3319 
L 1238 3319 
L 1238 2847 
Q 1447 3181 1614 3287 
Q 1781 3394 1994 3394 
Q 2294 3394 2572 3228 
L 2300 2463 
Q 2078 2606 1888 2606 
Q 1703 2606 1575 2504 
Q 1447 2403 1373 2137 
Q 1300 1872 1300 1025 
L 1300 0 
z
" transform="scale(0.015625)"/>
      <path id="Arial-BoldMT-73" d="M 150 947 
L 1031 1081 
Q 1088 825 1259 692 
Q 1431 559 1741 559 
Q 2081 559 2253 684 
Q 2369 772 2369 919 
Q 2369 1019 2306 1084 
Q 2241 1147 2013 1200 
Q 950 1434 666 1628 
Q 272 1897 272 2375 
Q 272 2806 612 3100 
Q 953 3394 1669 3394 
Q 2350 3394 2681 3172 
Q 3013 2950 3138 2516 
L 2309 2363 
Q 2256 2556 2107 2659 
Q 1959 2763 1684 2763 
Q 1338 2763 1188 2666 
Q 1088 2597 1088 2488 
Q 1088 2394 1175 2328 
Q 1294 2241 1995 2081 
Q 2697 1922 2975 1691 
Q 3250 1456 3250 1038 
Q 3250 581 2869 253 
Q 2488 -75 1741 -75 
Q 1063 -75 667 200 
Q 272 475 150 947 
z
" transform="scale(0.015625)"/>
     </defs>
     <use xlink:href="#Arial-BoldMT-34"/>
     <use xlink:href="#Arial-BoldMT-2e" transform="translate(55.615234 0)"/>
     <use xlink:href="#Arial-BoldMT-33" transform="translate(83.398438 0)"/>
     <use xlink:href="#Arial-BoldMT-d7" transform="translate(139.013672 0)"/>
     <use xlink:href="#Arial-BoldMT-20" transform="translate(197.412109 0)"/>
     <use xlink:href="#Arial-BoldMT-69" transform="translate(225.195312 0)"/>
     <use xlink:href="#Arial-BoldMT-6e" transform="translate(252.978516 0)"/>
     <use xlink:href="#Arial-BoldMT-63" transform="translate(314.0625 0)"/>
     <use xlink:href="#Arial-BoldMT-72" transform="translate(369.677734 0)"/>
     <use xlink:href="#Arial-BoldMT-65" transform="translate(408.59375 0)"/>
     <use xlink:href="#Arial-BoldMT-61" transform="translate(464.208984 0)"/>
     <use xlink:href="#Arial-BoldMT-73" transform="translate(519.824219 0)"/>
     <use xlink:href="#Arial-BoldMT-65" transform="translate(575.439453 0)"/>
    </g>
   </g>
   <g id="text_9">
    <!-- English: Propaganda Spike in R1-0528 -->
    <g style="fill: #262626" transform="translate(261.455 47.88) scale(0.12 -0.12)">
     <defs>
      <path id="Arial-BoldMT-67" d="M 378 -219 
L 1381 -341 
Q 1406 -516 1497 -581 
Q 1622 -675 1891 -675 
Q 2234 -675 2406 -572 
Q 2522 -503 2581 -350 
Q 2622 -241 2622 53 
L 2622 538 
Q 2228 0 1628 0 
Q 959 0 569 566 
Q 263 1013 263 1678 
Q 263 2513 664 2953 
Q 1066 3394 1663 3394 
Q 2278 3394 2678 2853 
L 2678 3319 
L 3500 3319 
L 3500 341 
Q 3500 -247 3403 -537 
Q 3306 -828 3131 -993 
Q 2956 -1159 2664 -1253 
Q 2372 -1347 1925 -1347 
Q 1081 -1347 728 -1058 
Q 375 -769 375 -325 
Q 375 -281 378 -219 
z
M 1163 1728 
Q 1163 1200 1367 954 
Q 1572 709 1872 709 
Q 2194 709 2416 961 
Q 2638 1213 2638 1706 
Q 2638 2222 2425 2472 
Q 2213 2722 1888 2722 
Q 1572 2722 1367 2476 
Q 1163 2231 1163 1728 
z
" transform="scale(0.015625)"/>
      <path id="Arial-BoldMT-6c" d="M 459 0 
L 459 4581 
L 1338 4581 
L 1338 0 
L 459 0 
z
" transform="scale(0.015625)"/>
      <path id="Arial-BoldMT-3a" d="M 628 2441 
L 628 3319 
L 1506 3319 
L 1506 2441 
L 628 2441 
z
M 628 0 
L 628 878 
L 1506 878 
L 1506 0 
L 628 0 
z
" transform="scale(0.015625)"/>
      <path id="Arial-BoldMT-70" d="M 434 3319 
L 1253 3319 
L 1253 2831 
Q 1413 3081 1684 3237 
Q 1956 3394 2288 3394 
Q 2866 3394 3269 2941 
Q 3672 2488 3672 1678 
Q 3672 847 3265 386 
Q 2859 -75 2281 -75 
Q 2006 -75 1782 34 
Q 1559 144 1313 409 
L 1313 -1263 
L 434 -1263 
L 434 3319 
z
M 1303 1716 
Q 1303 1156 1525 889 
Q 1747 622 2066 622 
Q 2372 622 2575 867 
Q 2778 1113 2778 1672 
Q 2778 2194 2568 2447 
Q 2359 2700 2050 2700 
Q 1728 2700 1515 2451 
Q 1303 2203 1303 1716 
z
" transform="scale(0.015625)"/>
      <path id="Arial-BoldMT-64" d="M 3503 0 
L 2688 0 
L 2688 488 
Q 2484 203 2207 64 
Q 1931 -75 1650 -75 
Q 1078 -75 670 386 
Q 263 847 263 1672 
Q 263 2516 659 2955 
Q 1056 3394 1663 3394 
Q 2219 3394 2625 2931 
L 2625 4581 
L 3503 4581 
L 3503 0 
z
M 1159 1731 
Q 1159 1200 1306 963 
Q 1519 619 1900 619 
Q 2203 619 2415 876 
Q 2628 1134 2628 1647 
Q 2628 2219 2422 2470 
Q 2216 2722 1894 2722 
Q 1581 2722 1370 2473 
Q 1159 2225 1159 1731 
z
" transform="scale(0.015625)"/>
      <path id="Arial-BoldMT-53" d="M 231 1491 
L 1131 1578 
Q 1213 1125 1461 912 
Q 1709 700 2131 700 
Q 2578 700 2804 889 
Q 3031 1078 3031 1331 
Q 3031 1494 2936 1608 
Q 2841 1722 2603 1806 
Q 2441 1863 1863 2006 
Q 1119 2191 819 2459 
Q 397 2838 397 3381 
Q 397 3731 595 4036 
Q 794 4341 1167 4500 
Q 1541 4659 2069 4659 
Q 2931 4659 3367 4281 
Q 3803 3903 3825 3272 
L 2900 3231 
Q 2841 3584 2645 3739 
Q 2450 3894 2059 3894 
Q 1656 3894 1428 3728 
Q 1281 3622 1281 3444 
Q 1281 3281 1419 3166 
Q 1594 3019 2269 2859 
Q 2944 2700 3267 2529 
Q 3591 2359 3773 2064 
Q 3956 1769 3956 1334 
Q 3956 941 3737 597 
Q 3519 253 3119 86 
Q 2719 -81 2122 -81 
Q 1253 -81 787 320 
Q 322 722 231 1491 
z
" transform="scale(0.015625)"/>
      <path id="Arial-BoldMT-6b" d="M 428 0 
L 428 4581 
L 1306 4581 
L 1306 2150 
L 2334 3319 
L 3416 3319 
L 2281 2106 
L 3497 0 
L 2550 0 
L 1716 1491 
L 1306 1063 
L 1306 0 
L 428 0 
z
" transform="scale(0.015625)"/>
      <path id="Arial-BoldMT-2d" d="M 359 1222 
L 359 2100 
L 2084 2100 
L 2084 1222 
L 359 1222 
z
" transform="scale(0.015625)"/>
      <path id="Arial-BoldMT-35" d="M 284 1178 
L 1159 1269 
Q 1197 972 1381 798 
Q 1566 625 1806 625 
Q 2081 625 2272 848 
Q 2463 1072 2463 1522 
Q 2463 1944 2273 2155 
Q 2084 2366 1781 2366 
Q 1403 2366 1103 2031 
L 391 2134 
L 841 4519 
L 3163 4519 
L 3163 3697 
L 1506 3697 
L 1369 2919 
Q 1663 3066 1969 3066 
Q 2553 3066 2959 2641 
Q 3366 2216 3366 1538 
Q 3366 972 3038 528 
Q 2591 -78 1797 -78 
Q 1163 -78 763 262 
Q 363 603 284 1178 
z
" transform="scale(0.015625)"/>
      <path id="Arial-BoldMT-32" d="M 3238 816 
L 3238 0 
L 159 0 
Q 209 463 459 877 
Q 709 1291 1447 1975 
Q 2041 2528 2175 2725 
Q 2356 2997 2356 3263 
Q 2356 3556 2198 3714 
Q 2041 3872 1763 3872 
Q 1488 3872 1325 3706 
Q 1163 3541 1138 3156 
L 263 3244 
Q 341 3969 753 4284 
Q 1166 4600 1784 4600 
Q 2463 4600 2850 4234 
Q 3238 3869 3238 3325 
Q 3238 3016 3127 2736 
Q 3016 2456 2775 2150 
Q 2616 1947 2200 1565 
Q 1784 1184 1673 1059 
Q 1563 934 1494 816 
L 3238 816 
z
" transform="scale(0.015625)"/>
      <path id="Arial-BoldMT-38" d="M 1025 2472 
Q 684 2616 529 2867 
Q 375 3119 375 3419 
Q 375 3931 733 4265 
Q 1091 4600 1750 4600 
Q 2403 4600 2764 4265 
Q 3125 3931 3125 3419 
Q 3125 3100 2959 2851 
Q 2794 2603 2494 2472 
Q 2875 2319 3073 2025 
Q 3272 1731 3272 1347 
Q 3272 713 2867 316 
Q 2463 -81 1791 -81 
Q 1166 -81 750 247 
Q 259 634 259 1309 
Q 259 1681 443 1992 
Q 628 2303 1025 2472 
z
M 1206 3356 
Q 1206 3094 1354 2947 
Q 1503 2800 1750 2800 
Q 2000 2800 2150 2948 
Q 2300 3097 2300 3359 
Q 2300 3606 2151 3754 
Q 2003 3903 1759 3903 
Q 1506 3903 1356 3753 
Q 1206 3603 1206 3356 
z
M 1125 1394 
Q 1125 1031 1311 828 
Q 1497 625 1775 625 
Q 2047 625 2225 820 
Q 2403 1016 2403 1384 
Q 2403 1706 2222 1901 
Q 2041 2097 1763 2097 
Q 1441 2097 1283 1875 
Q 1125 1653 1125 1394 
z
" transform="scale(0.015625)"/>
     </defs>
     <use xlink:href="#Arial-BoldMT-45"/>
     <use xlink:href="#Arial-BoldMT-6e" transform="translate(66.699219 0)"/>
     <use xlink:href="#Arial-BoldMT-67" transform="translate(127.783203 0)"/>
     <use xlink:href="#Arial-BoldMT-6c" transform="translate(188.867188 0)"/>
     <use xlink:href="#Arial-BoldMT-69" transform="translate(216.650391 0)"/>
     <use xlink:href="#Arial-BoldMT-73" transform="translate(244.433594 0)"/>
     <use xlink:href="#Arial-BoldMT-68" transform="translate(300.048828 0)"/>
     <use xlink:href="#Arial-BoldMT-3a" transform="translate(361.132812 0)"/>
     <use xlink:href="#Arial-BoldMT-20" transform="translate(394.433594 0)"/>
     <use xlink:href="#Arial-BoldMT-50" transform="translate(422.216797 0)"/>
     <use xlink:href="#Arial-BoldMT-72" transform="translate(488.916016 0)"/>
     <use xlink:href="#Arial-BoldMT-6f" transform="translate(527.832031 0)"/>
     <use xlink:href="#Arial-BoldMT-70" transform="translate(588.916016 0)"/>
     <use xlink:href="#Arial-BoldMT-61" transform="translate(650 0)"/>
     <use xlink:href="#Arial-BoldMT-67" transform="translate(705.615234 0)"/>
     <use xlink:href="#Arial-BoldMT-61" transform="translate(766.699219 0)"/>
     <use xlink:href="#Arial-BoldMT-6e" transform="translate(822.314453 0)"/>
     <use xlink:href="#Arial-BoldMT-64" transform="translate(883.398438 0)"/>
     <use xlink:href="#Arial-BoldMT-61" transform="translate(944.482422 0)"/>
     <use xlink:href="#Arial-BoldMT-20" transform="translate(1000.097656 0)"/>
     <use xlink:href="#Arial-BoldMT-53" transform="translate(1027.880859 0)"/>
     <use xlink:href="#Arial-BoldMT-70" transform="translate(1094.580078 0)"/>
     <use xlink:href="#Arial-BoldMT-69" transform="translate(1155.664062 0)"/>
     <use xlink:href="#Arial-BoldMT-6b" transform="translate(1183.447266 0)"/>
     <use xlink:href="#Arial-BoldMT-65" transform="translate(1239.0625 0)"/>
     <use xlink:href="#Arial-BoldMT-20" transform="translate(1294.677734 0)"/>
     <use xlink:href="#Arial-BoldMT-69" transform="translate(1322.460938 0)"/>
     <use xlink:href="#Arial-BoldMT-6e" transform="translate(1350.244141 0)"/>
     <use xlink:href="#Arial-BoldMT-20" transform="translate(1411.328125 0)"/>
     <use xlink:href="#Arial-BoldMT-52" transform="translate(1439.111328 0)"/>
     <use xlink:href="#Arial-BoldMT-31" transform="translate(1511.328125 0)"/>
     <use xlink:href="#Arial-BoldMT-2d" transform="translate(1566.943359 0)"/>
     <use xlink:href="#Arial-BoldMT-30" transform="translate(1600.244141 0)"/>
     <use xlink:href="#Arial-BoldMT-35" transform="translate(1655.859375 0)"/>
     <use xlink:href="#Arial-BoldMT-32" transform="translate(1711.474609 0)"/>
     <use xlink:href="#Arial-BoldMT-38" transform="translate(1767.089844 0)"/>
    </g>
   </g>
  </g>
  <g id="axes_2">
   <g id="patch_9">
    <path d="M 36.144688 541.98 
L 705.474687 541.98 
L 705.474687 313.44 
L 36.144688 313.44 
z
" style="fill: #eaeaf2"/>
   </g>
   <g id="matplotlib.axis_3">
    <g id="xtick_6">
     <g id="line2d_24">
      <path d="M 66.568778 541.98 
L 66.568778 313.44 
" clip-path="url(#p13bc978c9c)" style="fill: none; stroke-dasharray: 0.8,1.32; stroke-dashoffset: 0; stroke: #ffffff; stroke-opacity: 0.3; stroke-width: 0.8"/>
     </g>
     <g id="line2d_25"/>
     <g id="text_10">
      <!-- R1 -->
      <g style="fill: #262626" transform="translate(60.177372 552.637813) scale(0.1 -0.1)">
       <defs>
        <path id="ArialMT-52" d="M 503 0 
L 503 4581 
L 2534 4581 
Q 3147 4581 3465 4457 
Q 3784 4334 3975 4021 
Q 4166 3709 4166 3331 
Q 4166 2844 3850 2509 
Q 3534 2175 2875 2084 
Q 3116 1969 3241 1856 
Q 3506 1613 3744 1247 
L 4541 0 
L 3778 0 
L 3172 953 
Q 2906 1366 2734 1584 
Q 2563 1803 2427 1890 
Q 2291 1978 2150 2013 
Q 2047 2034 1813 2034 
L 1109 2034 
L 1109 0 
L 503 0 
z
M 1109 2559 
L 2413 2559 
Q 2828 2559 3062 2645 
Q 3297 2731 3419 2920 
Q 3541 3109 3541 3331 
Q 3541 3656 3305 3865 
Q 3069 4075 2559 4075 
L 1109 4075 
L 1109 2559 
z
" transform="scale(0.015625)"/>
       </defs>
       <use xlink:href="#ArialMT-52"/>
       <use xlink:href="#ArialMT-31" transform="translate(72.216797 0)"/>
      </g>
     </g>
    </g>
    <g id="xtick_7">
     <g id="line2d_26">
      <path d="M 218.689233 541.98 
L 218.689233 313.44 
" clip-path="url(#p13bc978c9c)" style="fill: none; stroke-dasharray: 0.8,1.32; stroke-dashoffset: 0; stroke: #ffffff; stroke-opacity: 0.3; stroke-width: 0.8"/>
     </g>
     <g id="line2d_27"/>
     <g id="text_11">
      <!-- R1-0528 -->
      <g style="fill: #262626" transform="translate(199.511108 552.637813) scale(0.1 -0.1)">
       <defs>
        <path id="ArialMT-2d" d="M 203 1375 
L 203 1941 
L 1931 1941 
L 1931 1375 
L 203 1375 
z
" transform="scale(0.015625)"/>
        <path id="ArialMT-38" d="M 1131 2484 
Q 781 2613 612 2850 
Q 444 3088 444 3419 
Q 444 3919 803 4259 
Q 1163 4600 1759 4600 
Q 2359 4600 2725 4251 
Q 3091 3903 3091 3403 
Q 3091 3084 2923 2848 
Q 2756 2613 2416 2484 
Q 2838 2347 3058 2040 
Q 3278 1734 3278 1309 
Q 3278 722 2862 322 
Q 2447 -78 1769 -78 
Q 1091 -78 675 323 
Q 259 725 259 1325 
Q 259 1772 486 2073 
Q 713 2375 1131 2484 
z
M 1019 3438 
Q 1019 3113 1228 2906 
Q 1438 2700 1772 2700 
Q 2097 2700 2305 2904 
Q 2513 3109 2513 3406 
Q 2513 3716 2298 3927 
Q 2084 4138 1766 4138 
Q 1444 4138 1231 3931 
Q 1019 3725 1019 3438 
z
M 838 1322 
Q 838 1081 952 856 
Q 1066 631 1291 507 
Q 1516 384 1775 384 
Q 2178 384 2440 643 
Q 2703 903 2703 1303 
Q 2703 1709 2433 1975 
Q 2163 2241 1756 2241 
Q 1359 2241 1098 1978 
Q 838 1716 838 1322 
z
" transform="scale(0.015625)"/>
       </defs>
       <use xlink:href="#ArialMT-52"/>
       <use xlink:href="#ArialMT-31" transform="translate(72.216797 0)"/>
       <use xlink:href="#ArialMT-2d" transform="translate(127.832031 0)"/>
       <use xlink:href="#ArialMT-30" transform="translate(161.132812 0)"/>
       <use xlink:href="#ArialMT-35" transform="translate(216.748047 0)"/>
       <use xlink:href="#ArialMT-32" transform="translate(272.363281 0)"/>
       <use xlink:href="#ArialMT-38" transform="translate(327.978516 0)"/>
      </g>
     </g>
    </g>
    <g id="xtick_8">
     <g id="line2d_28">
      <path d="M 370.809687 541.98 
L 370.809687 313.44 
" clip-path="url(#p13bc978c9c)" style="fill: none; stroke-dasharray: 0.8,1.32; stroke-dashoffset: 0; stroke: #ffffff; stroke-opacity: 0.3; stroke-width: 0.8"/>
     </g>
     <g id="line2d_29"/>
     <g id="text_12">
      <!-- V3.1 -->
      <g style="fill: #262626" transform="translate(360.524531 552.637813) scale(0.1 -0.1)">
       <defs>
        <path id="ArialMT-56" d="M 1803 0 
L 28 4581 
L 684 4581 
L 1875 1253 
Q 2019 853 2116 503 
Q 2222 878 2363 1253 
L 3600 4581 
L 4219 4581 
L 2425 0 
L 1803 0 
z
" transform="scale(0.015625)"/>
        <path id="ArialMT-33" d="M 269 1209 
L 831 1284 
Q 928 806 1161 595 
Q 1394 384 1728 384 
Q 2125 384 2398 659 
Q 2672 934 2672 1341 
Q 2672 1728 2419 1979 
Q 2166 2231 1775 2231 
Q 1616 2231 1378 2169 
L 1441 2663 
Q 1497 2656 1531 2656 
Q 1891 2656 2178 2843 
Q 2466 3031 2466 3422 
Q 2466 3731 2256 3934 
Q 2047 4138 1716 4138 
Q 1388 4138 1169 3931 
Q 950 3725 888 3313 
L 325 3413 
Q 428 3978 793 4289 
Q 1159 4600 1703 4600 
Q 2078 4600 2393 4439 
Q 2709 4278 2876 4000 
Q 3044 3722 3044 3409 
Q 3044 3113 2884 2869 
Q 2725 2625 2413 2481 
Q 2819 2388 3044 2092 
Q 3269 1797 3269 1353 
Q 3269 753 2831 336 
Q 2394 -81 1725 -81 
Q 1122 -81 723 278 
Q 325 638 269 1209 
z
" transform="scale(0.015625)"/>
        <path id="ArialMT-2e" d="M 581 0 
L 581 641 
L 1222 641 
L 1222 0 
L 581 0 
z
" transform="scale(0.015625)"/>
       </defs>
       <use xlink:href="#ArialMT-56"/>
       <use xlink:href="#ArialMT-33" transform="translate(66.699219 0)"/>
       <use xlink:href="#ArialMT-2e" transform="translate(122.314453 0)"/>
       <use xlink:href="#ArialMT-31" transform="translate(150.097656 0)"/>
      </g>
     </g>
    </g>
    <g id="xtick_9">
     <g id="line2d_30">
      <path d="M 522.930142 541.98 
L 522.930142 313.44 
" clip-path="url(#p13bc978c9c)" style="fill: none; stroke-dasharray: 0.8,1.32; stroke-dashoffset: 0; stroke: #ffffff; stroke-opacity: 0.3; stroke-width: 0.8"/>
     </g>
     <g id="line2d_31"/>
     <g id="text_13">
      <!-- V3.1-T -->
      <g style="fill: #262626" transform="translate(507.926236 552.637813) scale(0.1 -0.1)">
       <defs>
        <path id="ArialMT-54" d="M 1659 0 
L 1659 4041 
L 150 4041 
L 150 4581 
L 3781 4581 
L 3781 4041 
L 2266 4041 
L 2266 0 
L 1659 0 
z
" transform="scale(0.015625)"/>
       </defs>
       <use xlink:href="#ArialMT-56"/>
       <use xlink:href="#ArialMT-33" transform="translate(66.699219 0)"/>
       <use xlink:href="#ArialMT-2e" transform="translate(122.314453 0)"/>
       <use xlink:href="#ArialMT-31" transform="translate(150.097656 0)"/>
       <use xlink:href="#ArialMT-2d" transform="translate(205.712891 0)"/>
       <use xlink:href="#ArialMT-54" transform="translate(239.013672 0)"/>
      </g>
     </g>
    </g>
    <g id="xtick_10">
     <g id="line2d_32">
      <path d="M 675.050597 541.98 
L 675.050597 313.44 
" clip-path="url(#p13bc978c9c)" style="fill: none; stroke-dasharray: 0.8,1.32; stroke-dashoffset: 0; stroke: #ffffff; stroke-opacity: 0.3; stroke-width: 0.8"/>
     </g>
     <g id="line2d_33"/>
     <g id="text_14">
      <!-- V3.2 -->
      <g style="fill: #262626" transform="translate(664.76544 552.637813) scale(0.1 -0.1)">
       <use xlink:href="#ArialMT-56"/>
       <use xlink:href="#ArialMT-33" transform="translate(66.699219 0)"/>
       <use xlink:href="#ArialMT-2e" transform="translate(122.314453 0)"/>
       <use xlink:href="#ArialMT-32" transform="translate(150.097656 0)"/>
      </g>
     </g>
    </g>
    <g id="text_15">
     <!-- Model Version -->
     <g style="fill: #262626" transform="translate(330.135312 567.214688) scale(0.12 -0.12)">
      <defs>
       <path id="Arial-BoldMT-4d" d="M 453 0 
L 453 4581 
L 1838 4581 
L 2669 1456 
L 3491 4581 
L 4878 4581 
L 4878 0 
L 4019 0 
L 4019 3606 
L 3109 0 
L 2219 0 
L 1313 3606 
L 1313 0 
L 453 0 
z
" transform="scale(0.015625)"/>
       <path id="Arial-BoldMT-56" d="M 1634 0 
L -3 4581 
L 1000 4581 
L 2159 1191 
L 3281 4581 
L 4263 4581 
L 2622 0 
L 1634 0 
z
" transform="scale(0.015625)"/>
      </defs>
      <use xlink:href="#Arial-BoldMT-4d"/>
      <use xlink:href="#Arial-BoldMT-6f" transform="translate(83.300781 0)"/>
      <use xlink:href="#Arial-BoldMT-64" transform="translate(144.384766 0)"/>
      <use xlink:href="#Arial-BoldMT-65" transform="translate(205.46875 0)"/>
      <use xlink:href="#Arial-BoldMT-6c" transform="translate(261.083984 0)"/>
      <use xlink:href="#Arial-BoldMT-20" transform="translate(288.867188 0)"/>
      <use xlink:href="#Arial-BoldMT-56" transform="translate(316.650391 0)"/>
      <use xlink:href="#Arial-BoldMT-65" transform="translate(377.849609 0)"/>
      <use xlink:href="#Arial-BoldMT-72" transform="translate(433.464844 0)"/>
      <use xlink:href="#Arial-BoldMT-73" transform="translate(472.380859 0)"/>
      <use xlink:href="#Arial-BoldMT-69" transform="translate(527.996094 0)"/>
      <use xlink:href="#Arial-BoldMT-6f" transform="translate(555.779297 0)"/>
      <use xlink:href="#Arial-BoldMT-6e" transform="translate(616.863281 0)"/>
     </g>
    </g>
   </g>
   <g id="matplotlib.axis_4">
    <g id="ytick_7">
     <g id="line2d_34">
      <path d="M 36.144688 541.98 
L 705.474687 541.98 
" clip-path="url(#p13bc978c9c)" style="fill: none; stroke-dasharray: 0.8,1.32; stroke-dashoffset: 0; stroke: #ffffff; stroke-opacity: 0.3; stroke-width: 0.8"/>
     </g>
     <g id="line2d_35"/>
     <g id="text_16">
      <!-- 0 -->
      <g style="fill: #262626" transform="translate(27.08375 545.558906) scale(0.1 -0.1)">
       <use xlink:href="#ArialMT-30"/>
      </g>
     </g>
    </g>
    <g id="ytick_8">
     <g id="line2d_36">
      <path d="M 36.144688 496.272 
L 705.474687 496.272 
" clip-path="url(#p13bc978c9c)" style="fill: none; stroke-dasharray: 0.8,1.32; stroke-dashoffset: 0; stroke: #ffffff; stroke-opacity: 0.3; stroke-width: 0.8"/>
     </g>
     <g id="line2d_37"/>
     <g id="text_17">
      <!-- 5 -->
      <g style="fill: #262626" transform="translate(27.08375 499.850906) scale(0.1 -0.1)">
       <use xlink:href="#ArialMT-35"/>
      </g>
     </g>
    </g>
    <g id="ytick_9">
     <g id="line2d_38">
      <path d="M 36.144688 450.564 
L 705.474687 450.564 
" clip-path="url(#p13bc978c9c)" style="fill: none; stroke-dasharray: 0.8,1.32; stroke-dashoffset: 0; stroke: #ffffff; stroke-opacity: 0.3; stroke-width: 0.8"/>
     </g>
     <g id="line2d_39"/>
     <g id="text_18">
      <!-- 10 -->
      <g style="fill: #262626" transform="translate(21.522813 454.142906) scale(0.1 -0.1)">
       <use xlink:href="#ArialMT-31"/>
       <use xlink:href="#ArialMT-30" transform="translate(55.615234 0)"/>
      </g>
     </g>
    </g>
    <g id="ytick_10">
     <g id="line2d_40">
      <path d="M 36.144688 404.856 
L 705.474687 404.856 
" clip-path="url(#p13bc978c9c)" style="fill: none; stroke-dasharray: 0.8,1.32; stroke-dashoffset: 0; stroke: #ffffff; stroke-opacity: 0.3; stroke-width: 0.8"/>
     </g>
     <g id="line2d_41"/>
     <g id="text_19">
      <!-- 15 -->
      <g style="fill: #262626" transform="translate(21.522813 408.434906) scale(0.1 -0.1)">
       <use xlink:href="#ArialMT-31"/>
       <use xlink:href="#ArialMT-35" transform="translate(55.615234 0)"/>
      </g>
     </g>
    </g>
    <g id="ytick_11">
     <g id="line2d_42">
      <path d="M 36.144688 359.148 
L 705.474687 359.148 
" clip-path="url(#p13bc978c9c)" style="fill: none; stroke-dasharray: 0.8,1.32; stroke-dashoffset: 0; stroke: #ffffff; stroke-opacity: 0.3; stroke-width: 0.8"/>
     </g>
     <g id="line2d_43"/>
     <g id="text_20">
      <!-- 20 -->
      <g style="fill: #262626" transform="translate(21.522813 362.726906) scale(0.1 -0.1)">
       <use xlink:href="#ArialMT-32"/>
       <use xlink:href="#ArialMT-30" transform="translate(55.615234 0)"/>
      </g>
     </g>
    </g>
    <g id="ytick_12">
     <g id="line2d_44">
      <path d="M 36.144688 313.44 
L 705.474687 313.44 
" clip-path="url(#p13bc978c9c)" style="fill: none; stroke-dasharray: 0.8,1.32; stroke-dashoffset: 0; stroke: #ffffff; stroke-opacity: 0.3; stroke-width: 0.8"/>
     </g>
     <g id="line2d_45"/>
     <g id="text_21">
      <!-- 25 -->
      <g style="fill: #262626" transform="translate(21.522813 317.018906) scale(0.1 -0.1)">
       <use xlink:href="#ArialMT-32"/>
       <use xlink:href="#ArialMT-35" transform="translate(55.615234 0)"/>
      </g>
     </g>
    </g>
    <g id="text_22">
     <!-- CCP Echo Rate (%) -->
     <g style="fill: #262626" transform="translate(15.207656 477.729922) rotate(-90) scale(0.11 -0.11)">
      <use xlink:href="#Arial-BoldMT-43"/>
      <use xlink:href="#Arial-BoldMT-43" transform="translate(72.216797 0)"/>
      <use xlink:href="#Arial-BoldMT-50" transform="translate(144.433594 0)"/>
      <use xlink:href="#Arial-BoldMT-20" transform="translate(209.382812 0)"/>
      <use xlink:href="#Arial-BoldMT-45" transform="translate(237.166016 0)"/>
      <use xlink:href="#Arial-BoldMT-63" transform="translate(303.865234 0)"/>
      <use xlink:href="#Arial-BoldMT-68" transform="translate(359.480469 0)"/>
      <use xlink:href="#Arial-BoldMT-6f" transform="translate(420.564453 0)"/>
      <use xlink:href="#Arial-BoldMT-20" transform="translate(481.648438 0)"/>
      <use xlink:href="#Arial-BoldMT-52" transform="translate(509.431641 0)"/>
      <use xlink:href="#Arial-BoldMT-61" transform="translate(581.648438 0)"/>
      <use xlink:href="#Arial-BoldMT-74" transform="translate(637.263672 0)"/>
      <use xlink:href="#Arial-BoldMT-65" transform="translate(670.564453 0)"/>
      <use xlink:href="#Arial-BoldMT-20" transform="translate(726.179688 0)"/>
      <use xlink:href="#Arial-BoldMT-28" transform="translate(753.962891 0)"/>
      <use xlink:href="#Arial-BoldMT-25" transform="translate(787.263672 0)"/>
      <use xlink:href="#Arial-BoldMT-29" transform="translate(876.179688 0)"/>
     </g>
    </g>
   </g>
   <g id="FillBetweenPolyCollection_2">
    <defs>
     <path id="m630a7494fa" d="M 66.568778 -216.9949 
L 66.568778 -34.802813 
L 218.689233 -34.802813 
L 370.809687 -34.802813 
L 522.930142 -34.802813 
L 675.050597 -34.802813 
L 675.050597 -74.477356 
L 675.050597 -74.477356 
L 522.930142 -102.7249 
L 370.809687 -107.387116 
L 218.689233 -250.544572 
L 66.568778 -216.9949 
z
" style="stroke: #de8f05; stroke-opacity: 0.2"/>
    </defs>
    <g clip-path="url(#p13bc978c9c)">
     <use xlink:href="#m630a7494fa" x="0" y="576.782813" style="fill: #de8f05; fill-opacity: 0.2; stroke: #de8f05; stroke-opacity: 0.2"/>
    </g>
   </g>
   <g id="patch_10">
    <path d="M 36.144688 541.98 
L 36.144688 313.44 
" style="fill: none"/>
   </g>
   <g id="patch_11">
    <path d="M 705.474687 541.98 
L 705.474687 313.44 
" style="fill: none"/>
   </g>
   <g id="patch_12">
    <path d="M 36.144688 541.98 
L 705.474687 541.98 
" style="fill: none"/>
   </g>
   <g id="patch_13">
    <path d="M 36.144688 313.44 
L 705.474687 313.44 
" style="fill: none"/>
   </g>
   <g id="line2d_46">
    <path d="M 66.568778 359.787912 
L 218.689233 326.23824 
L 370.809687 469.395696 
L 522.930142 474.057912 
L 675.050597 502.305456 
" clip-path="url(#p13bc978c9c)" style="fill: none; stroke: #de8f05; stroke-width: 3; stroke-linecap: round"/>
    <defs>
     <path id="mf56a8f81bd" d="M -5 5 
L 5 5 
L 5 -5 
L -5 -5 
z
" style="stroke: #de8f05; stroke-linejoin: miter"/>
    </defs>
    <g clip-path="url(#p13bc978c9c)">
     <use xlink:href="#mf56a8f81bd" x="66.568778" y="359.787912" style="fill: #de8f05; stroke: #de8f05; stroke-linejoin: miter"/>
     <use xlink:href="#mf56a8f81bd" x="218.689233" y="326.23824" style="fill: #de8f05; stroke: #de8f05; stroke-linejoin: miter"/>
     <use xlink:href="#mf56a8f81bd" x="370.809687" y="469.395696" style="fill: #de8f05; stroke: #de8f05; stroke-linejoin: miter"/>
     <use xlink:href="#mf56a8f81bd" x="522.930142" y="474.057912" style="fill: #de8f05; stroke: #de8f05; stroke-linejoin: miter"/>
     <use xlink:href="#mf56a8f81bd" x="675.050597" y="502.305456" style="fill: #de8f05; stroke: #de8f05; stroke-linejoin: miter"/>
    </g>
   </g>
   <g id="patch_14">
    <path d="M 288.174842 336.411535 
Q 254.422326 331.469874 222.882291 326.85214 
" style="fill: none; stroke: #ca5140; stroke-width: 2; stroke-linecap: round"/>
    <path d="M 227.283984 329.922172 
L 222.882291 326.85214 
L 227.979333 325.172805 
" style="fill: none; stroke: #ca5140; stroke-width: 2; stroke-linecap: round"/>
   </g>
   <g id="text_23">
    <g id="patch_15">
     <path d="M 294.74946 359.788665 
L 388.07196 359.788665 
Q 391.67196 359.788665 391.67196 356.188665 
L 391.67196 332.38029 
Q 391.67196 328.78029 388.07196 328.78029 
L 294.74946 328.78029 
Q 291.14946 328.78029 291.14946 332.38029 
L 291.14946 356.188665 
Q 291.14946 359.788665 294.74946 359.788665 
z
" style="fill: #ffffff; stroke: #ca5140; stroke-width: 2; stroke-linejoin: miter"/>
    </g>
    <!-- 23.6% -->
    <g style="fill: #ca5140" transform="translate(294.74946 340.812165) scale(0.12 -0.12)">
     <defs>
      <path id="Arial-BoldMT-36" d="M 3247 3459 
L 2397 3366 
Q 2366 3628 2234 3753 
Q 2103 3878 1894 3878 
Q 1616 3878 1423 3628 
Q 1231 3378 1181 2588 
Q 1509 2975 1997 2975 
Q 2547 2975 2939 2556 
Q 3331 2138 3331 1475 
Q 3331 772 2918 347 
Q 2506 -78 1859 -78 
Q 1166 -78 719 461 
Q 272 1000 272 2228 
Q 272 3488 737 4044 
Q 1203 4600 1947 4600 
Q 2469 4600 2811 4308 
Q 3153 4016 3247 3459 
z
M 1256 1544 
Q 1256 1116 1453 883 
Q 1650 650 1903 650 
Q 2147 650 2309 840 
Q 2472 1031 2472 1466 
Q 2472 1913 2297 2120 
Q 2122 2328 1859 2328 
Q 1606 2328 1431 2129 
Q 1256 1931 1256 1544 
z
" transform="scale(0.015625)"/>
     </defs>
     <use xlink:href="#Arial-BoldMT-32"/>
     <use xlink:href="#Arial-BoldMT-33" transform="translate(55.615234 0)"/>
     <use xlink:href="#Arial-BoldMT-2e" transform="translate(111.230469 0)"/>
     <use xlink:href="#Arial-BoldMT-36" transform="translate(139.013672 0)"/>
     <use xlink:href="#Arial-BoldMT-25" transform="translate(194.628906 0)"/>
    </g>
    <!-- (higher than EN) -->
    <g style="fill: #ca5140" transform="translate(294.74946 353.66304) scale(0.12 -0.12)">
     <defs>
      <path id="Arial-BoldMT-4e" d="M 475 0 
L 475 4581 
L 1375 4581 
L 3250 1522 
L 3250 4581 
L 4109 4581 
L 4109 0 
L 3181 0 
L 1334 2988 
L 1334 0 
L 475 0 
z
" transform="scale(0.015625)"/>
     </defs>
     <use xlink:href="#Arial-BoldMT-28"/>
     <use xlink:href="#Arial-BoldMT-68" transform="translate(33.300781 0)"/>
     <use xlink:href="#Arial-BoldMT-69" transform="translate(94.384766 0)"/>
     <use xlink:href="#Arial-BoldMT-67" transform="translate(122.167969 0)"/>
     <use xlink:href="#Arial-BoldMT-68" transform="translate(183.251953 0)"/>
     <use xlink:href="#Arial-BoldMT-65" transform="translate(244.335938 0)"/>
     <use xlink:href="#Arial-BoldMT-72" transform="translate(299.951172 0)"/>
     <use xlink:href="#Arial-BoldMT-20" transform="translate(338.867188 0)"/>
     <use xlink:href="#Arial-BoldMT-74" transform="translate(366.650391 0)"/>
     <use xlink:href="#Arial-BoldMT-68" transform="translate(399.951172 0)"/>
     <use xlink:href="#Arial-BoldMT-61" transform="translate(461.035156 0)"/>
     <use xlink:href="#Arial-BoldMT-6e" transform="translate(516.650391 0)"/>
     <use xlink:href="#Arial-BoldMT-20" transform="translate(577.734375 0)"/>
     <use xlink:href="#Arial-BoldMT-45" transform="translate(605.517578 0)"/>
     <use xlink:href="#Arial-BoldMT-4e" transform="translate(672.216797 0)"/>
     <use xlink:href="#Arial-BoldMT-29" transform="translate(744.433594 0)"/>
    </g>
   </g>
   <g id="text_24">
    <!-- Chinese: Consistently Higher (NIST predicted 1.5-10×) -->
    <g style="fill: #262626" transform="translate(216.952812 307.44) scale(0.12 -0.12)">
     <defs>
      <path id="Arial-BoldMT-79" d="M 44 3319 
L 978 3319 
L 1772 963 
L 2547 3319 
L 3456 3319 
L 2284 125 
L 2075 -453 
Q 1959 -744 1854 -897 
Q 1750 -1050 1614 -1145 
Q 1478 -1241 1279 -1294 
Q 1081 -1347 831 -1347 
Q 578 -1347 334 -1294 
L 256 -606 
Q 463 -647 628 -647 
Q 934 -647 1081 -467 
Q 1228 -288 1306 -9 
L 44 3319 
z
" transform="scale(0.015625)"/>
      <path id="Arial-BoldMT-48" d="M 469 0 
L 469 4581 
L 1394 4581 
L 1394 2778 
L 3206 2778 
L 3206 4581 
L 4131 4581 
L 4131 0 
L 3206 0 
L 3206 2003 
L 1394 2003 
L 1394 0 
L 469 0 
z
" transform="scale(0.015625)"/>
      <path id="Arial-BoldMT-49" d="M 438 0 
L 438 4581 
L 1363 4581 
L 1363 0 
L 438 0 
z
" transform="scale(0.015625)"/>
      <path id="Arial-BoldMT-54" d="M 1497 0 
L 1497 3806 
L 138 3806 
L 138 4581 
L 3778 4581 
L 3778 3806 
L 2422 3806 
L 2422 0 
L 1497 0 
z
" transform="scale(0.015625)"/>
     </defs>
     <use xlink:href="#Arial-BoldMT-43"/>
     <use xlink:href="#Arial-BoldMT-68" transform="translate(72.216797 0)"/>
     <use xlink:href="#Arial-BoldMT-69" transform="translate(133.300781 0)"/>
     <use xlink:href="#Arial-BoldMT-6e" transform="translate(161.083984 0)"/>
     <use xlink:href="#Arial-BoldMT-65" transform="translate(222.167969 0)"/>
     <use xlink:href="#Arial-BoldMT-73" transform="translate(277.783203 0)"/>
     <use xlink:href="#Arial-BoldMT-65" transform="translate(333.398438 0)"/>
     <use xlink:href="#Arial-BoldMT-3a" transform="translate(389.013672 0)"/>
     <use xlink:href="#Arial-BoldMT-20" transform="translate(422.314453 0)"/>
     <use xlink:href="#Arial-BoldMT-43" transform="translate(450.097656 0)"/>
     <use xlink:href="#Arial-BoldMT-6f" transform="translate(522.314453 0)"/>
     <use xlink:href="#Arial-BoldMT-6e" transform="translate(583.398438 0)"/>
     <use xlink:href="#Arial-BoldMT-73" transform="translate(644.482422 0)"/>
     <use xlink:href="#Arial-BoldMT-69" transform="translate(700.097656 0)"/>
     <use xlink:href="#Arial-BoldMT-73" transform="translate(727.880859 0)"/>
     <use xlink:href="#Arial-BoldMT-74" transform="translate(783.496094 0)"/>
     <use xlink:href="#Arial-BoldMT-65" transform="translate(816.796875 0)"/>
     <use xlink:href="#Arial-BoldMT-6e" transform="translate(872.412109 0)"/>
     <use xlink:href="#Arial-BoldMT-74" transform="translate(933.496094 0)"/>
     <use xlink:href="#Arial-BoldMT-6c" transform="translate(966.796875 0)"/>
     <use xlink:href="#Arial-BoldMT-79" transform="translate(994.580078 0)"/>
     <use xlink:href="#Arial-BoldMT-20" transform="translate(1050.195312 0)"/>
     <use xlink:href="#Arial-BoldMT-48" transform="translate(1077.978516 0)"/>
     <use xlink:href="#Arial-BoldMT-69" transform="translate(1150.195312 0)"/>
     <use xlink:href="#Arial-BoldMT-67" transform="translate(1177.978516 0)"/>
     <use xlink:href="#Arial-BoldMT-68" transform="translate(1239.0625 0)"/>
     <use xlink:href="#Arial-BoldMT-65" transform="translate(1300.146484 0)"/>
     <use xlink:href="#Arial-BoldMT-72" transform="translate(1355.761719 0)"/>
     <use xlink:href="#Arial-BoldMT-20" transform="translate(1394.677734 0)"/>
     <use xlink:href="#Arial-BoldMT-28" transform="translate(1422.460938 0)"/>
     <use xlink:href="#Arial-BoldMT-4e" transform="translate(1455.761719 0)"/>
     <use xlink:href="#Arial-BoldMT-49" transform="translate(1527.978516 0)"/>
     <use xlink:href="#Arial-BoldMT-53" transform="translate(1555.761719 0)"/>
     <use xlink:href="#Arial-BoldMT-54" transform="translate(1622.460938 0)"/>
     <use xlink:href="#Arial-BoldMT-20" transform="translate(1683.544922 0)"/>
     <use xlink:href="#Arial-BoldMT-70" transform="translate(1711.328125 0)"/>
     <use xlink:href="#Arial-BoldMT-72" transform="translate(1772.412109 0)"/>
     <use xlink:href="#Arial-BoldMT-65" transform="translate(1811.328125 0)"/>
     <use xlink:href="#Arial-BoldMT-64" transform="translate(1866.943359 0)"/>
     <use xlink:href="#Arial-BoldMT-69" transform="translate(1928.027344 0)"/>
     <use xlink:href="#Arial-BoldMT-63" transform="translate(1955.810547 0)"/>
     <use xlink:href="#Arial-BoldMT-74" transform="translate(2011.425781 0)"/>
     <use xlink:href="#Arial-BoldMT-65" transform="translate(2044.726562 0)"/>
     <use xlink:href="#Arial-BoldMT-64" transform="translate(2100.341797 0)"/>
     <use xlink:href="#Arial-BoldMT-20" transform="translate(2161.425781 0)"/>
     <use xlink:href="#Arial-BoldMT-31" transform="translate(2189.208984 0)"/>
     <use xlink:href="#Arial-BoldMT-2e" transform="translate(2244.824219 0)"/>
     <use xlink:href="#Arial-BoldMT-35" transform="translate(2272.607422 0)"/>
     <use xlink:href="#Arial-BoldMT-2d" transform="translate(2328.222656 0)"/>
     <use xlink:href="#Arial-BoldMT-31" transform="translate(2361.523438 0)"/>
     <use xlink:href="#Arial-BoldMT-30" transform="translate(2417.138672 0)"/>
     <use xlink:href="#Arial-BoldMT-d7" transform="translate(2472.753906 0)"/>
     <use xlink:href="#Arial-BoldMT-29" transform="translate(2531.152344 0)"/>
    </g>
   </g>
  </g>
  <g id="text_25">
   <!-- CCP Propaganda Language Evolution -->
   <g style="fill: #262626" transform="translate(230.395 17.391563) scale(0.14 -0.14)">
    <defs>
     <path id="Arial-BoldMT-4c" d="M 491 0 
L 491 4544 
L 1416 4544 
L 1416 772 
L 3716 772 
L 3716 0 
L 491 0 
z
" transform="scale(0.015625)"/>
     <path id="Arial-BoldMT-75" d="M 2644 0 
L 2644 497 
Q 2463 231 2167 78 
Q 1872 -75 1544 -75 
Q 1209 -75 943 72 
Q 678 219 559 484 
Q 441 750 441 1219 
L 441 3319 
L 1319 3319 
L 1319 1794 
Q 1319 1094 1367 936 
Q 1416 778 1544 686 
Q 1672 594 1869 594 
Q 2094 594 2272 717 
Q 2450 841 2515 1023 
Q 2581 1206 2581 1919 
L 2581 3319 
L 3459 3319 
L 3459 0 
L 2644 0 
z
" transform="scale(0.015625)"/>
     <path id="Arial-BoldMT-76" d="M 1372 0 
L 34 3319 
L 956 3319 
L 1581 1625 
L 1763 1059 
Q 1834 1275 1853 1344 
Q 1897 1484 1947 1625 
L 2578 3319 
L 3481 3319 
L 2163 0 
L 1372 0 
z
" transform="scale(0.015625)"/>
    </defs>
    <use xlink:href="#Arial-BoldMT-43"/>
    <use xlink:href="#Arial-BoldMT-43" transform="translate(72.216797 0)"/>
    <use xlink:href="#Arial-BoldMT-50" transform="translate(144.433594 0)"/>
    <use xlink:href="#Arial-BoldMT-20" transform="translate(209.382812 0)"/>
    <use xlink:href="#Arial-BoldMT-50" transform="translate(237.166016 0)"/>
    <use xlink:href="#Arial-BoldMT-72" transform="translate(303.865234 0)"/>
    <use xlink:href="#Arial-BoldMT-6f" transform="translate(342.78125 0)"/>
    <use xlink:href="#Arial-BoldMT-70" transform="translate(403.865234 0)"/>
    <use xlink:href="#Arial-BoldMT-61" transform="translate(464.949219 0)"/>
    <use xlink:href="#Arial-BoldMT-67" transform="translate(520.564453 0)"/>
    <use xlink:href="#Arial-BoldMT-61" transform="translate(581.648438 0)"/>
    <use xlink:href="#Arial-BoldMT-6e" transform="translate(637.263672 0)"/>
    <use xlink:href="#Arial-BoldMT-64" transform="translate(698.347656 0)"/>
    <use xlink:href="#Arial-BoldMT-61" transform="translate(759.431641 0)"/>
    <use xlink:href="#Arial-BoldMT-20" transform="translate(815.046875 0)"/>
    <use xlink:href="#Arial-BoldMT-4c" transform="translate(842.830078 0)"/>
    <use xlink:href="#Arial-BoldMT-61" transform="translate(903.914062 0)"/>
    <use xlink:href="#Arial-BoldMT-6e" transform="translate(959.529297 0)"/>
    <use xlink:href="#Arial-BoldMT-67" transform="translate(1020.613281 0)"/>
    <use xlink:href="#Arial-BoldMT-75" transform="translate(1081.697266 0)"/>
    <use xlink:href="#Arial-BoldMT-61" transform="translate(1142.78125 0)"/>
    <use xlink:href="#Arial-BoldMT-67" transform="translate(1198.396484 0)"/>
    <use xlink:href="#Arial-BoldMT-65" transform="translate(1259.480469 0)"/>
    <use xlink:href="#Arial-BoldMT-20" transform="translate(1315.095703 0)"/>
    <use xlink:href="#Arial-BoldMT-45" transform="translate(1342.878906 0)"/>
    <use xlink:href="#Arial-BoldMT-76" transform="translate(1409.578125 0)"/>
    <use xlink:href="#Arial-BoldMT-6f" transform="translate(1465.193359 0)"/>
    <use xlink:href="#Arial-BoldMT-6c" transform="translate(1526.277344 0)"/>
    <use xlink:href="#Arial-BoldMT-75" transform="translate(1554.060547 0)"/>
    <use xlink:href="#Arial-BoldMT-74" transform="translate(1615.144531 0)"/>
    <use xlink:href="#Arial-BoldMT-69" transform="translate(1648.445312 0)"/>
    <use xlink:href="#Arial-BoldMT-6f" transform="translate(1676.228516 0)"/>
    <use xlink:href="#Arial-BoldMT-6e" transform="translate(1737.3125 0)"/>
   </g>
  </g>
 </g>
 <defs>
  <clipPath id="p6ba91575b1">
   <rect x="36.144688" y="53.88" width="669.33" height="228.54"/>
  </clipPath>
  <clipPath id="p13bc978c9c">
   <rect x="36.144688" y="313.44" width="669.33" height="228.54"/>
  </clipPath>
 </defs>
</svg>
