<svg xmlns="http://www.w3.org/2000/svg" viewBox="0 0 800 600">
  <!-- Background -->
  <rect width="800" height="600" fill="#ffffff"/>
  
  <!-- Title -->
  <text x="400" y="50" text-anchor="middle" font-family="Arial" font-size="24" font-weight="bold">Best-of-N Jailbreaking Cycle</text>

  <!-- Center point for rotation calculations -->
  <!-- cx=400, cy=325 -->
  
  <!-- Large circle background -->
  <circle cx="400" cy="325" r="200" fill="none" stroke="#ddd" stroke-width="2" stroke-dasharray="5,5"/>

  <!-- Original Request -->
  <g transform="translate(400,125)">
    <rect x="-90" y="-30" width="180" height="60" rx="5" fill="#e6f3ff" stroke="#2196f3" stroke-width="2"/>
    <text x="0" y="5" text-anchor="middle" font-family="Arial" font-size="14">Original Request</text>
  </g>

  <!-- Apply Augmentations -->
  <g transform="translate(650,225)">
    <rect x="-90" y="-40" width="180" height="80" rx="5" fill="#fff3e6" stroke="#ff9800" stroke-width="2"/>
    <text x="0" y="-20" text-anchor="middle" font-family="Arial" font-size="14">Apply Augmentations</text>
    <text x="0" y="0" text-anchor="middle" font-family="Arial" font-size="12">• Random capitalization</text>
    <text x="0" y="20" text-anchor="middle" font-family="Arial" font-size="12">• Character scrambling</text>
    <text x="0" y="40" text-anchor="middle" font-family="Arial" font-size="12">• ASCII noise</text>
  </g>

  <!-- Language Model -->
  <g transform="translate(650,425)">
    <rect x="-90" y="-30" width="180" height="60" rx="5" fill="#e8f5e9" stroke="#4caf50" stroke-width="2"/>
    <text x="0" y="5" text-anchor="middle" font-family="Arial" font-size="14">Language Model</text>
  </g>

  <!-- Response -->
  <g transform="translate(400,525)">
    <rect x="-90" y="-30" width="180" height="60" rx="5" fill="#fce4ec" stroke="#e91e63" stroke-width="2"/>
    <text x="0" y="5" text-anchor="middle" font-family="Arial" font-size="14">Response</text>
  </g>

  <!-- Harm Classifier -->
  <g transform="translate(150,425)">
    <rect x="-90" y="-30" width="180" height="60" rx="5" fill="#f3e5f5" stroke="#9c27b0" stroke-width="2"/>
    <text x="0" y="5" text-anchor="middle" font-family="Arial" font-size="14">Harm Classifier</text>
  </g>

  <!-- N Counter Box -->
  <g transform="translate(150,225)">
    <rect x="-90" y="-40" width="180" height="80" rx="5" fill="#f5f5f5" stroke="#666" stroke-width="2"/>
    <text x="0" y="-15" text-anchor="middle" font-family="Arial" font-size="14">Sample Counter</text>
    <text x="0" y="15" text-anchor="middle" font-family="Arial" font-size="14" font-weight="bold">N remaining</text>
  </g>

  <!-- Connecting Arrows -->
  <!-- Define arrow marker -->
  <defs>
    <marker id="arrowhead" markerWidth="10" markerHeight="7" refX="9" refY="3.5" orient="auto">
      <polygon points="0 0, 10 3.5, 0 7" fill="#666"/>
    </marker>
  </defs>

  <!-- Arrows connecting the components -->
  <g stroke="#666" stroke-width="2" fill="none">
    <!-- Original Request to Augmentations -->
    <path d="M 490 125 Q 600 125 650 185" marker-end="url(#arrowhead)"/>
    <!-- Augmentations to Model -->
    <path d="M 650 265 L 650 395" marker-end="url(#arrowhead)"/>
    <!-- Model to Response -->
    <path d="M 560 425 Q 500 425 400 495" marker-end="url(#arrowhead)"/>
    <!-- Response to Classifier -->
    <path d="M 310 525 Q 200 525 150 455" marker-end="url(#arrowhead)"/>
    <!-- Classifier to Counter -->
    <path d="M 150 395 L 150 265" marker-end="url(#arrowhead)"/>
    <!-- Counter back to Augmentations (if N>0) -->
    <path d="M 240 225 Q 400 225 560 225" marker-end="url(#arrowhead)"/>
  </g>

  <!-- Success/Fail Labels -->
  <text x="400" y="205" text-anchor="middle" font-family="Arial" font-size="12" fill="#666">If N > 0 and not harmful</text>
  <text x="400" y="245" text-anchor="middle" font-family="Arial" font-size="12" fill="#666">Try next variation</text>
</svg>
